<svg width="20" height="16" viewBox="0 0 20 16" xmlns="http://www.w3.org/2000/svg">
<path d="M7.4375 10.3438C7.5625 10.5938 7.4375 10.875 7.15625 10.9688C6.90625 11.0938 6.625 10.9688 6.53125 10.6875L6.25 10H3.71875L3.4375 10.6875C3.34375 10.9688 3.0625 11.0938 2.8125 10.9688C2.53125 10.875 2.40625 10.5938 2.53125 10.3438L4.53125 5.34375C4.59375 5.125 4.78125 5 5 5C5.1875 5 5.375 5.125 5.4375 5.34375L7.4375 10.3438ZM4.125 9H5.84375L5 6.875L4.125 9ZM15.5 6H17.5C17.75 6 18 6.25 18 6.5C18 6.78125 17.75 7 17.5 7H17.3438L17.2188 7.375C16.9062 8.1875 16.4375 8.9375 15.8438 9.53125C15.9375 9.59375 16.0312 9.65625 16.1562 9.71875L16.75 10.0938C16.9688 10.2188 17.0625 10.5312 16.9062 10.7812C16.7812 11 16.4688 11.0938 16.2188 10.9375L15.625 10.5938C15.4375 10.4688 15.25 10.3438 15.0625 10.1875C14.8125 10.375 14.5312 10.5625 14.25 10.6875L13.7188 10.9688C13.4688 11.0938 13.1562 11 13.0312 10.75C12.9062 10.5 13 10.1875 13.25 10.0625L13.8125 9.8125C13.9688 9.71875 14.125 9.625 14.2812 9.53125L13.625 8.875C13.4375 8.6875 13.4375 8.34375 13.625 8.15625C13.8125 7.96875 14.1562 7.96875 14.3438 8.15625L15.0312 8.875L15.0625 8.90625C15.5938 8.375 16 7.75 16.25 7.03125L16.2812 7H12.5C12.2188 7 12 6.78125 12 6.5C12 6.25 12.2188 6 12.5 6H14.5V5.5C14.5 5.25 14.7188 5 15 5C15.25 5 15.5 5.25 15.5 5.5V6ZM20 12C20 13.125 19.0938 14 18 14H2C0.875 14 0 13.125 0 12V4C0 2.90625 0.875 2 2 2H18C19.0938 2 20 2.90625 20 4V12ZM9.5 3H2C1.4375 3 1 3.46875 1 4V12C1 12.5625 1.4375 13 2 13H9.5V3ZM10.5 3V13H18C18.5312 13 19 12.5625 19 12V4C19 3.46875 18.5312 3 18 3H10.5Z"/>
</svg>
