<svg height="59" viewBox="0 0 71 59" width="71" xmlns="http://www.w3.org/2000/svg"><g fill="#008943" fill-rule="evenodd"><g transform="matrix(-1 0 0 1 71 18.080645)"><path d="m11.6004065 24.3372554c-.7342195-.7292438-1.91595075-.7292438-2.60874601 0l-8.4409959 8.3821725c-.73421945.7292438-.73421945 1.9029666 0 2.5910673l2.2424517 2.2272549c.3663106.3638282.81543698.526766 1.30437299.526766s.97787203-.2024777 1.30437299-.526766l8.43936503-8.382173c.7342195-.7292437.7342195-1.9029665 0-2.5910668z"/><path d="m34.3082738 4.06185502c-5.4246621-5.41580669-14.2609554-5.41580669-19.6856175 0-4.85009759 4.80504736-5.42466215 12.46030498-1.3967098 17.91560748l-.452747.4485416c-.4109904.4071729-.4109904 1.0990411 0 1.506214l1.480223 1.4664739c.4109904.4071729 1.1093452.4071729 1.5203356 0l.452747-.4485416c2.4241857 1.7909092 5.3428751 2.6466238 8.2198078 2.6466238 3.5752875 0 7.1923317-1.3439963 9.8637692-4.0303602 5.4246621-5.4158067 5.4246621-14.13012104-.0016028-19.50439611zm-2.054952 17.46690288c-2.0967085 2.0772333-4.8500975 3.2160145-7.8088173 3.2160145-2.958802 0-5.7119444-1.1404099-7.8088173-3.2160145-4.3153991-4.2753154-4.3153991-11.1972546 0-15.43103839 4.315399-4.27531542 11.3441566-4.27531542 15.6176346-.04135248 4.3153991 4.27531537 4.3153991 11.19725467 0 15.47257007z"/></g><path d="m46.7632621 20.9666902h-2.8731289l.0008382-1.8257347-.0086093-2.9643898v-7.09227578-1.55959541-.12806955-.02276809c0-.06546278-.0057371-.14229869-.0057371-.21345168-.0086094-.29313632.0143464.05692385.0143464.06261405.0229559-.06546279-.0487838-.23621976-.0631303-.29883381-.0057371-.02845828-.0229558-.06261405-.0286929-.09107233-.0487839-.15084492-.0373097-.12237935.0430394.07114571.0057371-.00569749-.0717397-.13945724-.0860862-.16222532-.0286929-.04837762-.0573858-.09675524-.0918232-.14798889.03443.04837762.080349.09676252.114779.14798889-.0057371 0-.1205162-.12522081-.114779-.11953061-.1865115-.21060294.2152117.14230598.0573932.05123365-.1549463-.08538213.3529466.0711457.080349.02845828-.2955607-.05122636.3586837-.01422914.0430394 0-.1147791.0056902-.2295582 0-.3443372 0l-8.3731876.00029143c-.803461 0-1.4003122-.6546279-1.4203958-1.40593818-.0344521-.76840274.6829448-1.42298692 1.4347202-1.42298692h3.4720949 4.8838226c.114779 0 .2381675-.0056902.3586837 0 .946955.03417034 1.693008.48384907 2.2382105 1.22947644.4964186.67451809.668591 1.55675395.668591 2.36788054.0057371 1.40018241 0 2.81180348 0 4.21205878v7.4579786zm0 22.7132359v7.7849011 2.4134167c0 .4041426.0143464.8253412-.0287003 1.2294764-.1779168 1.5738756-1.1765132 2.9456507-2.8838383 2.9883381h-.3787673-2.1865692-8.6886849-11.4433831-10.6397457-6.35585977-.5107651c-1.13346643-.019963-2.12916857-.6033359-2.7461034-1.5425466-.50789286-.774042-.55093961-1.613656-.55093961-2.4816846v-5.8001416-9.9042978-11.4692848-10.5789617-7.20607981-1.57096124c0-1.8926287 1.36008625-3.66569037 3.36300885-3.67138057 2.75455114-.01422914 5.50351942 0 8.25821753 0 .8034315 0 1.4002681.65458419 1.4347202 1.42298692.034452.76840274-.6829448 1.42298692-1.4347202 1.42298692h-3.47782471-4.65712927-.20086523-.03443006c-.2582511-.00853894.10043262.0056902.11477909-.02276808-.05739322.01707788-.11478643.02845828-.1721723.05122636.19512077-.08537484.23816752-.10814292.1377349-.05691656-.02295582.01991934-.20660235.09107233-.20086524.11953061.00573712.03699722.22094883-.20492002.06313034-.04269471-.0430394.04268743-.19225589.15084492-.20660236.21345169 0 0 .18077431-.29313633.04303941-.04268743-.03443006.07400173-.0774768.15083764-.12051621.22199063-.10330485.17076425.08608615-.31875315.00573712 0 0 0-.06599522.19068359-.05164875.20491274.01147423-.20491274.02008358-.22483937.00573712-.06261405v.10815021.0056902.03415576.1479889 4.68170051 9.1014043 11.1931535 10.8718503 8.168095 2.3109785.5976604.1366084.0284583.1081502c.00860935.3073728 0-.0683042-.00573712-.0626067-.01434647.0113877.06313033.2760584.08608615.2902948-.02008359-.0483776-.04017452-.1053014-.06313033-.1565278.02869293.0569166.05739321.1138331.09182326.170757.12052355.2561391-.05738587-.0654628-.05738587-.0512337 0 .0483849.16068338.1707643.19512078.2049128.15208137.1622253-.04878387-.0939138-.07173969-.0512264-.00573711.0142292.18651877.0996113.20086524.1138404.1119142.1081502-.31564432-.0796846-.05164875-.0284583 0 0 .16643518.0284583.1721723.0426875-.06886745-.0796847-.35007438-.0142292-.1205162-.0284583h.07173968.53085603 2.42472195 8.79519992 11.3111502 10.4303961 6.1693483c.1606907 0 .3242537-.0056902.4820722 0h.0430394c.2955607.0113804-.2955534.0768432-.0430394.0056902.2496417-.0796919-.2869514.1849934-.0143539 0 .1434794-.1053015-.2496417.264678-.0717323.0512263.0057371-.0056902.0918233-.1138331.1147791-.1195306-.1377423.1793032-.1664352.2077615-.080349.079692.0143464-.0284583.0286929-.0512264.0430394-.079692.114779-.1878348-.0975604.0683043-.0344301.0910724.0086094 0 .0659952-.2049128.0717323-.2276809.0086094-.0426874.074612-.2077542.0516561-.2419099.0200836.0284655-.0143464.2931436-.0143464.071153 0-.3528871.0057371-.7086375.0057371-1.0586976v-6.0563099-4.7382744z"/><path d="m37.4954808 19.1536036h-2.7776172-6.6629167-8.0635522-6.9728386c-1.1247983 0-2.2611296-.0284583-3.38600139 0h-.05164875c-.75177547 0-1.4691723.6545842-1.43472021 1.4229869.03443005.7684319.63128864 1.4229869 1.43472021 1.4229869h2.77761714 6.6629167 8.0635522 6.9728386c1.1247984 0 2.2611297.0284583 3.3860014 0h.0516488c.7517755 0 1.4691723-.6545842 1.4347202-1.4229869-.0373023-.7741148-.6312887-1.4229869-1.4347202-1.4229869z"/><path d="m33.7568497 31.1066646h-2.4238075-5.8142021-7.0364263-6.0846465c-.9815228 0-1.9731096-.0284583-2.95469648 0h-.04506979c-.65601518 0-1.28203084.6545842-1.25196722 1.4229869.03004439.7684319.55087583 1.4229869 1.25196722 1.4229869h2.42380747 5.8142022 7.0364262 6.0846466c.9815228 0 1.9731095.0284583 2.9546964 0h.0450698c.6560152 0 1.2820309-.6545842 1.2519672-1.4229869-.0325507-.7741148-.5508758-1.4229869-1.2519672-1.4229869z"/><path d="m23.7939799 43.0604541h-4.8063971-7.627208-1.76469632c-.75177546 0-1.46917229.6545842-1.4347202 1.422987.03443005.7684318.63128864 1.4229869 1.4347202 1.4229869h4.80639722 7.6272079 1.7646963c.7517755 0 1.4691723-.6545842 1.4347202-1.4229869-.0344374-.7741148-.6312886-1.422987-1.4347202-1.422987z"/><path d="m29.741924.21347354h-7.3401317-6.6715114-1.6642784c-1.5638605 0-3.027303.93345494-3.4290482 2.49028175-.1291255.49804907-.114779 1.00179562-.114779 1.51405925v1.80723929c0 .39844508-.0057372.80260222 0 1.20098901.0229558 1.16689154.6083254 2.23411351 1.6069072 2.86025396.7173674.4496715 1.5150839.4980491 2.324304.4980491h2.1750361 7.1105736 7.0014875 2.0373012c1.032975 0 2.0029226-.2049127 2.7834204-.94489363.6886745-.65458419 1.0186506-1.55959542 1.0272452-2.49028176v-1.45715726c0-1.20958624.1779095-2.60408573-.4074676-3.71407527-.593979-1.0957094-1.7589518-1.72745265-2.9756468-1.76446444-.7517755-.02276808 1.4319581-.21347354 1.4319581 1.41151181 0 1.62498534-2.2411415 1.41165023-1.4377026 1.43438189.0516488 0 .1004326.00569019.1492165.00569019.1578185 0-.1291256-.00569019-.143472-.02276808.0057371.0056902.4160769.1849934.1951207.04269471-.1865187-.11384041.0631304.05691656.1205162.07969193.1578185.05691656-.1291255-.06261405-.1004326-.08538213.0057371-.00569748.1291256.11384041.1377349.11953061.028693.02845828.0573932.0711457.0918233.09961127.1205162.10815021-.1004326-.09107233-.080349-.10815021-.0057372.0056902.2439046.37566971.1090419.15652783-.1090419-.17076426.0057372.08538213.028693.14229869.0631303.11953061-.0229558-.10815021-.0143465-.14229869-.0143465.05122637.0057371.14229869.0057371.19922254.0057445.31875315 0 .6318161 0 .953418 0 .92493057.0287003 1.84993399 0 2.77486456 0 .04268742-.0229558.10815021-.0057371.14798889-.0057371-.03415576.0717397-.26183658.0143465-.14229869-.028693.05691656-.1434721.31306295-.028693.14229869.1147791-.1849934-.0573858.06260677-.080349.11953061-.0573859.15652784.0631303-.13660849.0860862-.09961127.0057371.01422914-.1492092.15652784-.1578185.17076426-.0057372.0056902-.1004327.09107233-.109042.09107233-.0286929-.02276808.2582511-.14229869.1004326-.08538213-.0516487.02276808-.3012978.19352506-.1205162.07969193.1721723-.10815021-.0860861.0056902-.143472.02845828-.1205162.06261405.109042-.02276808.143472-.01422914-.0430394-.01422914-.143472.0056902-.2008652.0056902h-.2352953-1.6642784-6.3931767-7.0933108c-1.2826608 0-2.5767813.0056902-3.8594421 0h-.109042c-.0430394 0-.109042-.02276808-.1492091-.0056902.03443-.00569748.2639955.07114571.143472.01422914-.0573932-.02845828-.3156443-.14229869-.143472-.02845828.1865187.11384041-.0631304-.05692385-.1205163-.07969193-.1578184-.05692385.137735.06260676.1004327.08538213-.0143465.0056902-.1492092-.14229869-.1721723-.15652783-.0057372-.00569749-.0918233-.09961127-.0918233-.10815021.0229558-.02846557.143472.2561391.0860861.09961127-.0229558-.05123365-.1951207-.29883381-.080349-.11953061.109042.17076426-.0057371-.08538213-.0286929-.14229869-.0631304-.11953061.0229558.10815021.0143464.14229869.0143465-.04269471-.0057371-.14229869-.0057371-.19922254v-.29029487-3.13062951-.30737276c0-.0426947.0229558-.10815021.0057371-.14798889.0143465.05122637-.080349.24190997-.0143464.1422987.0229558-.02846557.0286929-.10815022.03443-.1366085.0631304-.27036824-.0143464.09107233-.0430394.07969193-.0057371 0 .1291256-.24190996.1434721-.24190996.0229558.0056902-.2008653.20491274-.0803491.10815021.0430394-.03415576.0860862-.09107233.1291256-.13660849.0057371-.00569749.1004326-.09107233.1090419-.09107233.0430394.02845828-.2639955.12806955-.1004326.08538213.0344301-.00569748.0918233-.05123365.1205162-.07115299.2352953-.15652783-.080349.05692385-.0860861.02845828 0-.02845828.2582511-.05691656.2725975-.07969193-.0057371.00569749-.3012978.01422914-.143472.02276808.0516488 0 .1004326-.00569019.1492092-.00569019h.0631303 1.3142481 6.0029645 7.2167213 4.4907455.223821c.7517755 0 1.4347202-.63030493 1.4347202-1.42298692 0-.792682-.6341535-1.4116211-1.4375851-1.4116211z"/></g></svg>