<svg height="64" viewBox="0 0 64 64" width="64" xmlns="http://www.w3.org/2000/svg"><g fill="none" fill-rule="evenodd" transform="translate(1 2)"><path d="m52.9229493 40.3980771c-2.9591873-2.9591872-7.2416308-3.7734326-10.9408454-2.4667785l-20.916304-20.9138443c1.3090522-3.6989687.4948007-7.98135072-2.4643803-10.93838582-2.1185014-2.11850135-4.9143722-3.14174986-7.6911198-3.07448023-1.24657875.03122442-1.51805536 1.01119655-.6365404 1.89031343l2.6877721 2.6901702c2.5580906 2.55809052 2.5580906 5.16174492 0 7.72001992-2.5580905 2.5580905-5.16174484 2.5580905-7.72001985 0l-2.69016836-2.6901702c-.88151497-.881515-1.8614748-.6076895-1.89031343.6365403-.06725733 2.7742265.95597889 5.5724955 3.0744784 7.6886602 2.95918722 2.9591872 7.23917114 3.7734326 10.93838574 2.4667785l20.916304 20.9163039c-1.3090522 3.6989687-.4948007 7.9813507 2.4643804 10.9383858 2.1185013 2.1185001 4.9143722 3.141748 7.6911197 3.0744784 1.2465788-.0312256 1.5180554-1.0111965.6365404-1.8927115l-2.6901702-2.6901684c-2.5580905-2.5580905-2.5580905-5.1617448 0-7.7224794 2.5580905-2.5580906 5.1617449-2.5580906 7.7224795 0l2.6901702 2.6901702c.8815149.8815149 1.8614748.6076894 1.8903134-.6365404.0696554-2.7718284-.9559789-5.5676993-3.0720821-7.6862006z" stroke="#008943" stroke-width="3"/><path d="m50.1342151 14.644641c.2638479-.2638479.5334928-.4494106.8698437-.6088758l4.5289174-2.1108128c.7538299-.3508322 1.0989022-.6668677 1.5193131-1.3830358l3.7025695-6.32360555c.1942619-.3334339.1652696-.57118424-.1101797-.84661124l-2.8935904-2.89359044c-.2725471-.27254706-.5102974-.30153938-.8466112-.10727751l-6.3236056 3.70256957c-.7190554.42041826-1.0321739.765409-1.3830358 1.51931312l-2.1108128 4.52891735c-.1565704.3363287-.3450279.605981-.605981.8698437l-12.4586793 12.4497723 3.6561789 3.6561789z" stroke="#008943" stroke-width="3"/><path d="m16.1969231 35.776044c-.3296704.0334813-.5820726.1339318-.8138901.3683011l-11.95318685 11.947912c-3.69850483 3.6985055-3.36112022 6.7839561 0 10.1479128l.45071869.4532967c3.3636923 3.3636923 6.44914286 3.6985055 10.14791206 0l11.9531868-11.9531875c.2343759-.2343758.3348198-.4842066.3683011-.8138901.103022-1.0534286.4198154-2.6631428 1.6586374-4.0642417l-7.7472527-7.7472528c-1.401099 1.2388352-3.0108132 1.5530769-4.0642418 1.6612088zm-12.25978024 18.0105494c-.56146813-.5588967-.56146813-1.4706593 0-2.0295165l12.90857144-12.9085714c.2807341-.2807341.6464637-.4198154 1.0147912-.4198154.3683011 0 .734044.1416528 1.0147912.4198154.5614681.5614681.5614681 1.4706593 0 2.0295165l-12.90857143 12.9085714c-.56146813.5614681-1.47065934.5614681-2.02951648 0zm18.32241754-10.9615385c.3683011 0 .734044.1390814 1.0147912.4198154.5614682.5588967.5614682 1.4680879 0 2.0295165l-12.9112087 12.9085714c-.56146817.5614682-1.47065938.5614682-2.02951653 0-.56146813-.5614681-.56146813-1.4680879 0-2.0295164l12.90857143-12.9085715c.2833121-.280734.6516132-.4198154 1.0173626-.4198154z" fill="#008943"/></g></svg>