<svg xmlns="http://www.w3.org/2000/svg" width="21" height="22" version="1.1" viewBox="0 0 21 22">
  <path d="M4.904 8.752c.292-.294 2.043-.733 1.896-2.64-.146-.585-.364-2.197-.656-3.15C5.414.617 5.268-.335 3.08.104 2.059.324 1.11 1.277.673 2.156-3.339 8.972 11.615 25.02 18.618 21.502c.876-.44 1.897-1.32 2.188-2.271.657-1.98-.364-2.49-2.918-3.37-1.02-.29-2.334-.73-2.918-.88-1.897-.29-2.334 1.54-2.626 1.76-2.626-.73-6.857-5.272-7.44-7.984v.002zM16.93 11.29c-.153 1.08-1.893.864-1.74-.217.452-3.024-2.046-5.616-5.3-5.4-1.135.072-1.21-1.584-.076-1.656 4.39-.29 7.72 3.169 7.115 7.273zm4.023.963c-.07 1.088-1.693.943-1.623-.146.494-5.37-3.315-9.58-8.536-9.435-1.06 0-1.06-1.67 0-1.67 6.137-.144 10.724 4.864 10.16 11.25z" fill="#FFF" fill-rule="evenodd"/>
</svg>
