<svg enable-background="new 0 0 512 512" viewBox="0 0 512 512"><path d="m472.436 69.772h-240.484c-21.816 0-39.564 17.749-39.564 39.564v24.564h-8.532c-4.142 0-7.5 3.358-7.5 7.5s3.358 7.5 7.5 7.5h8.532v120.758c0 21.816 17.749 39.564 39.564 39.564h72.661v24.565c0 13.545-11.02 24.564-24.564 24.564h-144.294c-2.029 0-3.949.82-5.345 2.239-.953.955-24.508 24.511-66.472 66.475-.13.129-.242.241-.539.118-.302-.125-.302-.286-.302-.473 0-23.573 0-60.402 0-60.847 0-.004 0-.008 0-.012 0-4.142-3.358-7.5-7.5-7.5h-16.033c-13.544.002-24.564-11.018-24.564-24.563v-160.322c0-13.545 11.02-24.564 24.564-24.564h112.223c4.142 0 7.5-3.358 7.5-7.5s-3.358-7.5-7.5-7.5h-112.223c-21.815-.001-39.564 17.748-39.564 39.564v160.323c0 21.816 17.749 39.564 39.564 39.564h8.532v53.359c0 6.3 3.753 11.925 9.562 14.332 1.924.797 3.938 1.185 5.934 1.185 4.026 0 7.976-1.578 10.952-4.555l64.318-64.32h141.186c21.816 0 39.564-17.749 39.564-39.564v-24.565h53.522l64.28 64.28c2.976 2.976 6.926 4.552 10.956 4.552 2.001 0 4.023-.389 5.954-1.189 5.819-2.41 9.579-8.037 9.579-14.335v-53.309h8.532c21.816 0 39.564-17.749 39.564-39.564v-160.323c.001-21.816-17.748-39.565-39.563-39.565zm24.564 199.887c0 13.545-11.02 24.564-24.564 24.564h-16.032c-4.142 0-7.5 3.358-7.5 7.5v60.809c0 .177 0 .345-.319.477-.316.131-.437.014-.563-.112l-66.477-66.477c-1.406-1.406-3.314-2.197-5.303-2.197h-144.29c-13.545 0-24.564-11.02-24.564-24.564v-160.322c0-13.545 11.02-24.564 24.564-24.564h240.484c13.545 0 24.564 11.02 24.564 24.564z"/><path d="m352.194 117.869c-.001 0-.003 0-.003 0-15.108.001-28.981 6.938-38.063 19.031-2.487 3.312-1.819 8.014 1.493 10.501 3.313 2.487 8.013 1.819 10.501-1.493 6.222-8.285 15.724-13.038 26.069-13.038 8.477-.001 16.597 3.451 22.865 9.719s9.719 14.388 9.719 22.865c-.001 14.28-9.543 27.114-23.205 31.211-10.094 3.027-16.876 12.071-16.876 22.505v2.394c0 4.142 3.358 7.5 7.5 7.5s7.5-3.358 7.5-7.5v-2.394c0-3.758 2.485-7.028 6.185-8.137 19.956-5.984 33.895-24.726 33.896-45.578.001-12.484-5.011-24.371-14.112-33.472-9.101-9.103-20.986-14.114-33.469-14.114z"/><path d="m352.193 246.127h-.08c-4.142 0-7.46 3.358-7.46 7.5s3.398 7.5 7.54 7.5 7.5-3.358 7.5-7.5-3.358-7.5-7.5-7.5z"/><path d="m152.307 189.498v96.194c0 4.142 3.358 7.5 7.5 7.5s7.5-3.358 7.5-7.5v-96.194c0-4.142-3.358-7.5-7.5-7.5s-7.5 3.358-7.5 7.5z"/><path d="m159.887 310.256h-.08c-4.142 0-7.46 3.358-7.46 7.5s3.398 7.5 7.54 7.5 7.5-3.358 7.5-7.5-3.358-7.5-7.5-7.5z"/></svg>