<svg height="22" viewBox="0 0 21 22" width="21" xmlns="http://www.w3.org/2000/svg"><path d="m25.9036196 26.7516854c.2922523-.2935896 2.0429728-.7330345 1.8968345-2.6384263-.1461286-.5862275-.3643742-2.1981518-.6566265-3.1513723-.7296956-2.3449588-.8758339-3.2973009-3.0639005-2.8578072-1.0210005.2201959-1.9699036 1.1724794-2.4073469 2.0523209-4.0120019 6.8156906 10.9426405 22.8641651 17.9454252 19.3457753.8758339-.4394449 1.8968345-1.3192619 2.1881394-2.2715552.6566265-1.9789174-.3643741-2.4917657-2.9179079-3.3705091-1.0210006-.2935896-2.3342777-.7330345-2.9179079-.8798415-1.8968345-.2935896-2.3342777 1.5385208-2.6264086 1.7587069-2.6264086-.7330345-6.8567921-5.2761206-7.4402765-7.9879992zm12.0251543 2.538139c-.1516177 1.0799575-1.8922725.8645367-1.7406447-.2163655.4538752-3.0243796-2.0439002-5.6161912-5.2978991-5.4006265-1.1351669.0721218-1.2109808-1.5838848-.0758089-1.6559875 4.3900479-.2884826 7.7197599 3.1687288 7.1143577 7.2730898zm4.0242511.9628531c-.0706659 1.088519-1.693227.9431221-1.6225564-.1453872.4937541-5.3709357-3.3157363-9.5805815-8.5368522-9.4350879-1.0581552 0-1.0581552-1.6691157 0-1.6691157 6.1378595-.1453872 10.7239272 4.8629167 10.1593616 11.2496488z" fill="#fff" fill-rule="evenodd" transform="translate(-21 -18)"/></svg>