<svg fill="none" height="24" viewBox="0 0 24 24" width="24" xmlns="http://www.w3.org/2000/svg"><path clip-rule="evenodd" d="m19.74 8.33018-5.44-6c-.1891-.20948-.4578-.32933-.74-.33h-7c-1.39718-.01666-2.54333 1.10246-2.56 2.49964v.00036 15.00002c.01647 1.3972 1.16246 2.5165 2.55964 2.5h.00036 10.88c1.3972.0166 2.5433-1.1025 2.56-2.4997 0-.0001 0-.0002 0-.0003v-10.50002c-.0006-.24783-.0933-.4866-.26-.67zm-2.0913.67006h-3.94c-.4289-.04223-.7448-.42043-.71-.85v-4.15h.11zm-.2087 10.99996h-10.88c-.29221.017-.54289-.2061-.5599-.4983-.00003-.0006-.00006-.0012-.0001-.0017v-15.00002c.01608-.29227.26604-.51617.55831-.50009.00056.00003.00113.00006.00169.00009h4.44v4.15.00001c-.0336 1.5334 1.1769 2.80641 2.71 2.85001h4.29v8.5c-.0161.2923-.266.5162-.5583.5001-.0006 0-.0011-.0001-.0017-.0001z" fill="#000" fill-rule="evenodd"/></svg>