<svg xmlns="http://www.w3.org/2000/svg" width="100%" height="100%" viewBox="0 0 512 512" fill="currentColor">
  <path d="M504.5 292.95a7.5 7.5 0 0 0 7.5-7.5v-24.6a12.53 12.53 0 0 0-.745-4.226l-.004-.014c-.008-.023-.019-.045-.027-.067-.103-.28-.213-.557-.335-.83l-.013-.027a11.833 11.833 0 0 0-.415-.837.142.142 0 0 0-.012-.041 12.52 12.52 0 0 0-.47-.79c-.09-.137-.191-.27-.286-.404-.088-.124-.17-.252-.262-.372l-59.836-78.14c-2.34-3.086-6.058-4.93-9.947-4.93h-64.82V148.18h74.72c6.893 0 12.5-5.606 12.5-12.5v-22.93c0-6.892-5.607-12.5-12.5-12.5h-95.25a7.504 7.504 0 0 0-4.682 1.64l-50.467 40.32h-93.56a7.5 7.5 0 0 0 0 15h96.19a7.5 7.5 0 0 0 4.68-1.64l50.468-40.32h90.12v17.93h-82.57a7.5 7.5 0 0 0-4.68 1.642l-50.457 40.32H16.54v-17.93h154.05a7.5 7.5 0 0 0 0-15H14.032c-6.893 0-12.5 5.607-12.5 12.5v22.93c0 6.893 5.607 12.5 12.5 12.5h.908l32.974 82.26h-9.522c-14.26 0-25.86 11.6-25.86 25.86V352.7L.53 382.95a7.5 7.5 0 0 0 4.206 9.736 7.499 7.499 0 0 0 9.737-4.206l9.71-24.475 21.047 8.833c6.775 22.483 27.664 38.909 52.326 38.909 21.634 0 40.37-12.638 49.22-30.918h23.732c8.847 18.28 27.584 30.918 49.218 30.918 3.38 0 6.766-.312 10.064-.926 13.527-2.521 25.526-10.016 33.786-21.105a54.795 54.795 0 0 0 5.389-8.887h30.808l3.035 7.65a7.501 7.501 0 0 0 9.737 4.207 7.5 7.5 0 0 0 4.206-9.737l-.84-2.12h42.767c8.848 18.28 27.585 30.918 49.22 30.918s40.37-12.638 49.218-30.918h42.37c6.9 0 12.51-5.612 12.51-12.51v-47.87a7.5 7.5 0 0 0-15 0v45.38h-35.16c.46-2.842.706-5.756.706-8.726 0-30.132-24.514-54.645-54.646-54.645-12.425 0-23.89 4.176-33.08 11.188V185.18h63.587l9.87 12.888H408.06c-5.24 0-9.504 4.263-9.504 9.503v49.58c0 5.24 4.263 9.504 9.504 9.504H497v18.794a7.5 7.5 0 0 0 7.5 7.5zM359.82 153.998V272.4h-42.539v-32.758a7.5 7.5 0 0 0-15 0V272.4h-57.26v-82.258h57.26v14.498a7.5 7.5 0 0 0 15 0v-16.65zM172.761 272.4v-82.258h57.26V272.4zm-72.259 0v-82.258h57.26V272.4zM31.1 190.142h54.4V272.4H64.075zm11.848 165.472-13.233-5.554 12.933-32.6h17.356c-10.178 9.646-16.65 23.152-17.056 38.154zm54.608 41.134c-21.86 0-39.646-17.785-39.646-39.646 0-21.828 17.733-39.59 39.55-39.643h.192c21.816.052 39.549 17.815 39.549 39.643 0 21.861-17.784 39.646-39.645 39.646zm53.94-30.918c.458-2.843.705-5.757.705-8.727 0-15.597-6.579-29.677-17.094-39.643h47.07c-10.516 9.966-17.095 24.046-17.095 39.643 0 2.971.247 5.884.705 8.727zm75.548 30.246a40.043 40.043 0 0 1-7.316.672c-21.86 0-39.645-17.785-39.645-39.646 0-21.828 17.733-39.59 39.549-39.643h.192c21.816.052 39.55 17.815 39.55 39.643 0 4.735-.825 9.34-2.416 13.673-.041.113-.087.224-.123.34a39.52 39.52 0 0 1-5.287 9.642c-5.998 8.051-14.7 13.492-24.504 15.32zm46.64-30.246c.458-2.86.69-5.776.69-8.727 0-15.597-6.579-29.677-17.094-39.643h17.355l19.19 48.37zm36.277 0-22.008-55.476a12.442 12.442 0 0 0-11.624-7.895H40.959c-5.163 0-9.728 3.1-11.629 7.895l-1.798 4.533V298.26c0-5.988 4.872-10.86 10.86-10.86H359.82v43.752a54.311 54.311 0 0 0-6.566 25.95c0 2.971.247 5.884.705 8.727h-43.998zm97.938-48.373c21.861 0 39.646 17.785 39.646 39.645 0 21.861-17.785 39.646-39.646 39.646s-39.645-17.785-39.645-39.646c0-21.86 17.785-39.645 39.645-39.645zm5.661-104.389h46.201l29.549 38.588h-75.75z"/>
  <path d="M407.899 380.833c13.085 0 23.731-10.645 23.731-23.731 0-13.085-10.645-23.73-23.731-23.73-13.085 0-23.73 10.644-23.73 23.73s10.645 23.731 23.73 23.731zm0-32.462c4.814 0 8.731 3.916 8.731 8.731 0 4.814-3.917 8.731-8.731 8.731s-8.73-3.916-8.73-8.731c0-4.814 3.916-8.73 8.73-8.73zm-310.343-15c-13.085 0-23.73 10.645-23.73 23.731 0 13.085 10.645 23.731 23.73 23.731s23.73-10.645 23.73-23.731c0-13.085-10.645-23.73-23.73-23.73zm0 32.462c-4.814 0-8.73-3.916-8.73-8.731 0-4.814 3.916-8.73 8.73-8.73s8.73 3.915 8.73 8.73-3.916 8.731-8.73 8.731zm122.172-32.462c-13.085 0-23.731 10.645-23.731 23.731 0 13.085 10.645 23.731 23.73 23.731s23.732-10.645 23.732-23.731c0-13.085-10.646-23.73-23.731-23.73zm0 32.462c-4.814 0-8.731-3.916-8.731-8.731 0-4.814 3.916-8.73 8.73-8.73s8.732 3.915 8.732 8.73-3.917 8.731-8.731 8.731z"/>
</svg>
