<svg fill="none" height="21" viewBox="0 0 20 21" width="20" xmlns="http://www.w3.org/2000/svg" xmlns:xlink="http://www.w3.org/1999/xlink"><clipPath id="a"><path d="m0 .5h20v20h-20z"/></clipPath><g clip-path="url(#a)" fill="#222"><path d="m1.91961 7.48668c.25299.17853 1.01562.70876 2.28792 1.59042 1.27233.88166 2.24703 1.5605 2.92412 2.0366.07439.0522.23244.1656.47422.3405.24182.175.44274.3163.60263.4242.15999.1078.35342.2288.58046.3626.22696.1338.44091.2344.6418.3011.20092.0671.38692.1004.55802.1004h.01122.0113c.1711 0 .3571-.0333.5581-.1004.2008-.0667.4149-.1674.6417-.3011.2269-.134.4203-.2548.5803-.3626.16-.1079.3608-.2492.6027-.4242.2417-.175.3999-.2883.4743-.3405.6844-.4761 2.4257-1.68521 5.2232-3.62726.5431-.3793.9969-.83698 1.3614-1.37272.3648-.53551.547-1.09728.547-1.68502 0-.49114-.1768-.91156-.5303-1.26123-.3534-.34975-.772-.52453-1.2555-.52453h-16.42856c-.57288 0-1.013748.19343-1.322528.58027-.308741.38693-.463112.87056-.463112 1.45087 0 .46874.204681.97669.613847 1.52353.409123.54689.844523.97661 1.305763 1.28907z"/><path d="m18.8838 8.68078c-2.4402 1.65162-4.2932 2.93522-5.5579 3.85052-.4241.3124-.7681.5562-1.0323.731s-.6156.3534-1.0547.5356c-.4389.1825-.848.2734-1.2275.2734h-.0114-.01119c-.37946 0-.78874-.0909-1.22765-.2734-.43892-.1822-.79054-.3608-1.05468-.5356-.26406-.1748-.60822-.4186-1.03228-.731-1.00452-.7366-2.85344-2.0202-5.54685-3.85052-.42422-.28255-.799963-.60642-1.12735-.97094v8.86136c0 .4914.174776.9116.524523 1.2613.349669.3498.770137.5246 1.261237.5246h16.42864c.491 0 .9114-.1748 1.2611-.5246.3498-.3499.5245-.7699.5245-1.2613v-8.86136c-.32.35698-.6919.68085-1.1162.97094z"/></g></svg>