<svg enable-background="new 0 0 60 60" viewBox="0 0 60 60" xmlns="http://www.w3.org/2000/svg"><path d="m31 16h-14v14h14zm-2 12h-10v-10h10z"/><path d="m52 16h-16c-.553 0-1 .447-1 1s.447 1 1 1h16c.553 0 1-.447 1-1s-.447-1-1-1z"/><path d="m52 22h-16c-.553 0-1 .447-1 1s.447 1 1 1h16c.553 0 1-.447 1-1s-.447-1-1-1z"/><path d="m52 28h-16c-.553 0-1 .447-1 1s.447 1 1 1h16c.553 0 1-.447 1-1s-.447-1-1-1z"/><path d="m52 34h-33c-.553 0-1 .447-1 1s.447 1 1 1h33c.553 0 1-.447 1-1s-.447-1-1-1z"/><path d="m34 40h-15c-.553 0-1 .447-1 1s.447 1 1 1h15c.553 0 1-.447 1-1s-.447-1-1-1z"/><path d="m34 46h-15c-.553 0-1 .447-1 1s.447 1 1 1h15c.553 0 1-.447 1-1s-.447-1-1-1z"/><path d="m34 52h-15c-.553 0-1 .447-1 1s.447 1 1 1h15c.553 0 1-.447 1-1s-.447-1-1-1z"/><path d="m39 54h14v-14h-14zm2-12h10v10h-10z"/><path d="m59 13c0-.017-.009-.031-.01-.048v-12.952h-47.99v30h-10v24c0 3.309 2.691 6 6 6h46c3.303 0 5.99-2.688 5.99-5.99v-40.962c.001-.017.01-.031.01-.048zm-2.01-11v10h-43.99v-10zm-53.99 52v-22h8v22c0 2.206-1.794 4-4 4s-4-1.794-4-4zm50 4h-41.531c.016-.018.027-.039.042-.057.204-.233.39-.482.556-.745.027-.042.052-.084.078-.128.162-.27.305-.552.423-.848.016-.041.03-.082.045-.123.115-.306.209-.622.273-.949.006-.03.008-.061.014-.09.062-.344.1-.698.1-1.06v-24-16h43.99v40.01c0 2.2-1.79 3.99-3.99 3.99z"/><path d="m47 4h-24v6h24zm-2 4h-20v-2h20z"/></svg>