<svg height="49" viewBox="0 0 60 49" width="60" xmlns="http://www.w3.org/2000/svg"><path d="m95.9796652 30.7889367c-.0047775-.0665518-.0095672-.1331037-.0191344-.1996434-.0095671-.0570479-.023924-.1140836-.0382809-.1711194-.0143569-.0570479-.0335035-.1140837-.0526378-.1711194-.0239241-.0617938-.0478481-.1188417-.0765619-.1806355-.0143569-.028524-.023924-.0617938-.0382809-.0855597l-8.5749285-15.0736469c-.3253818-.5751763-.9378767-.9269313-1.5982442-.9269313h-12.3405472c-1.0144385 0-1.8374847.8176057-1.8374847 1.8253387s.8230462 1.8253387 1.8374847 1.8253387h11.2641486l6.4982034 11.4273503h-17.278481c-1.0144386 0-1.8374847.8176057-1.8374847 1.8253386 0 3.2275639-2.641323 5.856295-5.8952634 5.856295-3.2490404 0-5.8952634-2.6238635-5.8952634-5.856295 0-1.0077329-.8230461-1.8253386-1.8374846-1.8253386h-17.2784811l6.4982034-11.4273503h11.2641486c1.0144386 0 1.8374847-.8176057 1.8374847-1.8253387s-.8230461-1.8253387-1.8374847-1.8253387h-12.3356472c-.660343 0-1.2728869.351755-1.5982442.9269313l-8.5749285 15.0736469c-.0191343.0285118-.0239241.0617938-.0382809.0903177-.0287138.0570358-.0526378.1140837-.0765619.1758775-.023924.0570357-.0382809.1140837-.0526378.1711194-.0143569.0570358-.0287138.1140837-.0382809.1711194-.0095672.0665397-.0191344.1331037-.0191344.1948975 0 .0332699-.0095794.0617938-.0095794.0950637v16.2954068c0 1.0077452.8230461 1.8253387 1.8374847 1.8253387h56.3250306c1.0144386 0 1.8374847-.8175935 1.8374847-1.8253387l-.0095672-16.2954068c0-.028524-.0095671-.0617938-.0095671-.0903178zm-3.6654145 14.5601182h-52.6463863v-12.6447295h16.929359c.8613148 4.3732681 4.7420579 7.6816336 9.3932217 7.6816336 4.6463863 0 8.5318089-3.3084872 9.3884442-7.6816336h16.929359zm-34.8264598-24.4619721c-.7177705.713026-.7177705 1.8681733 0 2.5811506l7.1920376 7.1444973c.0143569.014262.0335035.0190078.0478604.0332698.1579134.1473535.3397386.2709533.5407227.356513.0191343.0095161.0430584.014262.062205.01902.1961943.0760558.411523.1188296.6364189.1235876.0047775 0 .0047775.0047459.0095672.0047459h.0047897.0047775c.5311433 0 1.0096611-.2281673 1.3446713-.5894384l7.1585953-7.1112761c.7177705-.7130259.7177705-1.8681733 0-2.5811506s-1.8806043-.7130259-2.5983258 0l-4.0625562 4.0357022v-23.07836542c0-1.00774515-.8230461-1.82533868-1.8374847-1.82533868-1.0144385 0-1.8374847.81759353-1.8374847 1.82533868v23.10148632l-4.0673336-4.040448c-.7177705-.713026-1.8806043-.713026-2.5983258 0z" fill="#008943" fill-rule="evenodd" transform="translate(-36)"/></svg>