<svg clip-rule="evenodd" fill-rule="evenodd" stroke-linejoin="round" stroke-miterlimit="2" viewBox="0 0 140 140" xmlns="http://www.w3.org/2000/svg"><g transform="matrix(5.13869123027 0 0 5.13869123027 8.3356535701 16.7242737766)"><path d="m6 6c0 3.292 2.708 6 6 6s6-2.708 6-6-2.708-6-6-6-6 2.708-6 6zm1.5 0c0-2.469 2.031-4.5 4.5-4.5s4.5 2.031 4.5 4.5-2.031 4.5-4.5 4.5-4.5-2.031-4.5-4.5z"/><path d="m3 23.25c0-4.937 4.063-9 9-9s9 4.063 9 9c0 .414.336.75.75.75s.75-.336.75-.75c0-5.76-4.74-10.5-10.5-10.5s-10.5 4.74-10.5 10.5c0 .414.336.75.75.75s.75-.336.75-.75z"/></g></svg>