<svg enable-background="new 0 0 464 464" viewBox="0 0 464 464" xmlns="http://www.w3.org/2000/svg"><path d="m416.483 265.441c-2.704-2.777-6.419-4.336-10.295-4.321h-75.52c-5.891 0-10.667-4.776-10.667-10.667v-236.16c0-7.894-6.399-14.293-14.293-14.293h-146.987c-7.894 0-14.293 6.399-14.293 14.293v236.16c0 5.891-4.776 10.667-10.667 10.667h-75.733c-7.893-.149-14.412 6.128-14.561 14.02-.075 3.951 1.49 7.757 4.321 10.513l174.08 174.08c2.648 2.69 6.252 4.224 10.027 4.267 3.849.014 7.54-1.524 10.24-4.267l174.08-174.08c5.655-5.507 5.775-14.556.268-20.212z"/></svg>