<svg fill="none" height="16" viewBox="0 0 32 32" width="16" xmlns="http://www.w3.org/2000/svg"><path d="m27.7143 28.5071h-24.00001c-.94643 0-1.71429.7686-1.71429 1.7158 0 1.0057.76786 1.7771 1.71429 1.7771h24.00001c.9464 0 1.7143-.7686 1.7143-1.7157 0-.9486-.7643-1.7772-1.7143-1.7772zm-4.1072-15.9571-6.1785 6.5714v-17.39997c0-.952859-.7643-1.72143-1.7143-1.72143s-1.7143.768571-1.7143 1.71571v17.39999l-6.18071-6.5657c-.33715-.3643-.79215-.5429-1.24786-.5429-.42186 0-.84357.1542-1.17429.4669-.68971.6478-.72285 1.7336-.07364 2.4236l9.1429 9.7214c.6472.6924 1.8485.6924 2.4957 0l9.1428-9.7214c.6496-.6902.6161-1.7757-.0736-2.4236-.6884-.6526-1.7742-.6811-2.4242.076z" fill="#000"/></svg>