<svg fill="none" height="17" viewBox="0 0 16 17" width="16" xmlns="http://www.w3.org/2000/svg"><path clip-rule="evenodd" d="m6 2.55957c-2.20914 0-4 1.79086-4 4s1.79086 4.00003 4 4.00003 4-1.79089 4-4.00003-1.79086-4-4-4zm-6 4c0-3.31371 2.68629-6 6-6s6 2.68629 6 6c0 1.29583-.4108 2.49572-1.1093 3.47653l4.8164 4.8164c.3905.3905.3905 1.0237 0 1.4142s-1.0237.3905-1.4142 0l-4.81637-4.8164c-.98081.6985-2.1807 1.1093-3.47653 1.1093-3.31371 0-6-2.68632-6-6.00003z" fill="#9ca3af" fill-rule="evenodd"/></svg>