<svg clip-rule="evenodd" fill-rule="evenodd" stroke-linejoin="round" stroke-miterlimit="2" viewBox="0 0 36 36" xmlns="http://www.w3.org/2000/svg"><g transform="scale(1.5)"><path d="m2.25 18.753h19.5c.414 0 .75-.336.75-.75s-.336-.75-.75-.75h-19.5c-.414 0-.75.336-.75.75s.336.75.75.75z"/><path d="m2.25 12.753h19.5c.414 0 .75-.336.75-.75s-.336-.75-.75-.75h-19.5c-.414 0-.75.336-.75.75s.336.75.75.75z"/><path d="m2.25 6.753h19.5c.414 0 .75-.336.75-.75s-.336-.75-.75-.75h-19.5c-.414 0-.75.336-.75.75s.336.75.75.75z"/></g></svg>