<svg fill="none" height="21" viewBox="0 0 20 21" width="20" xmlns="http://www.w3.org/2000/svg" xmlns:xlink="http://www.w3.org/1999/xlink"><clipPath id="a"><path d="m0 .5h19.0909v20h-19.0909z"/></clipPath><g clip-path="url(#a)"><path clip-rule="evenodd" d="m4.45784 8.45608c.26568-.2669 1.85724-.6664 1.72439-2.39857-.13284-.53294-.33125-1.99832-.59693-2.86489-.66336-2.13178-.79622-2.997542-2.78537-2.598002-.92818.200178-1.79082 1.065892-2.188493 1.865742-3.647277 6.19609 9.947863 20.78564 16.314063 17.58704.7962-.3995 1.7244-1.1993 1.9892-2.065.5969-1.799-.3313-2.2653-2.6527-3.0641-.9281-.2669-2.122-.6664-2.6526-.7999-1.7244-.2669-2.1221 1.3987-2.3877 1.5988-2.3876-.6663-6.2334-4.7964-6.76384-7.26177zm10.93196 2.30742c-.1378.9818-1.7203.7859-1.5824-.1967.4126-2.74946-1.8581-5.10565-4.81628-4.90968-1.03197.06556-1.10089-1.43989-.06892-1.50544 3.991-.26226 7.018 2.88066 6.4676 6.61192zm3.6584.8753c-.0642.9896-1.5393.8574-1.475-.1322.4488-4.88264-3.0144-8.70959-7.76082-8.57732-.96196 0-.96196-1.51738 0-1.51738 5.57992-.13217 9.74902 4.42083 9.23582 10.2269z" fill="#222" fill-rule="evenodd"/></g></svg>