<svg fill="none" height="24" viewBox="0 0 24 24" width="24" xmlns="http://www.w3.org/2000/svg"><path clip-rule="evenodd" d="m19.5 20.5002h-15c-1.36033.0167-2.47807-1.0697-2.5-2.43v-12.14001.00001c.02193-1.36026 1.13966-2.4467 2.49999-2.43001h4.6c.29908.00198.58158.13772.77.37l2.60001 3.18h7c1.3637-.03331 2.4963 1.04521 2.5296 2.40895.0001.00702.0003.01404.0004.02105v8.59001c-.0219 1.3602-1.1397 2.4467-2.5 2.43zm-15.5-6.74v4.31c.01556.2536.23374.4465.48732.4309.00423-.0002.00846-.0005.01268-.0009h15c.253.0226.4765-.1643.499-.4173.0004-.0042.0007-.0085.001-.0127v-8.59001c-.0156-.25357-.2337-.44651-.4873-.43095-.0043.00026-.0085.00058-.0127.00095h-7.5c-.2991-.00197-.5816-.13772-.77-.37l-2.6-3.18h-4.13c-.25305-.02256-.47648.16428-.49905.41732-.00037.00422-.00069.00845-.00095.01268z" fill="#000" fill-rule="evenodd"/></svg>