<svg fill="none" height="20" viewBox="0 0 19 20" width="19" xmlns="http://www.w3.org/2000/svg"><path d="m9.5.55957c-5.24727 0-9.5 4.25273-9.5 9.50003 0 5.2472 4.25273 9.5 9.5 9.5 5.2473 0 9.5-4.2528 9.5-9.5 0-5.2473-4.2527-9.50003-9.5-9.50003zm0 17.21873c-4.25645 0-7.71875-3.4627-7.71875-7.7187 0-4.2561 3.4623-7.71878 7.71875-7.71878 4.2564 0 7.7188 3.46268 7.7188 7.71878 0 4.256-3.4624 7.7187-7.7188 7.7187zm3.7889-6.5609-2.8983-1.67365v-4.53105c0-.48985-.39704-.89063-.8906-.89063s-.89062.40078-.89062.89063v5.0469c0 .3183.16988.6123.44531.7711l3.34211 1.9297c.1387.049.2612.1195.443.1195.3073 0 .6072-.1595.7719-.4453.2487-.4268.1002-.9723-.3228-1.2172z" fill="#000"/></svg>