<svg xmlns="http://www.w3.org/2000/svg" fill="#3B3B3B" width="20" height="20" viewBox="0 0 20 20">
  <path d="M9.222 6.222c.111 0 .111 0 0 0 .111-.444.222-.666.222-1V5c.112-.556.112-1 0-1.111v-.117l-.11-.11s0 .11-.112.11C9 4.443 9 5.22 9.222 6.22zM5.89 13.89c-.222.111-.445.222-.556.333C4.556 14.89 4 15.667 3.89 16c.666-.111 1.332-.778 1.999-2.111.11 0 .11 0 0 0 .11 0 0 0 0 0zm10.222-1.667c-.111-.11-.555-.444-2.111-.444h-.22v.11c.78.334 1.558.556 2.11.556h.337v-.11s-.11 0-.11-.112zM17.778 0H2.222C1 0 0 1 0 2.222v15.556C0 19 1 20 2.222 20h15.556C19 20 20 19 20 17.778V2.222C20 1 19 0 17.778 0zm-1.222 13.111a2.22 2.22 0 0 1-1 .222c-.89 0-2.223-.222-3.334-.777-1.89.222-3.333.444-4.444.888-.111 0-.111 0-.222.111C6.222 15.89 5.11 17 4.222 17c-.222 0-.333 0-.444-.111l-.556-.333v-.112c-.11-.222-.11-.333-.11-.555.11-.556.777-1.556 2.11-2.333.222-.112.556-.334 1-.556.334-.556.667-1.222 1.111-2 .556-1.11.89-2.222 1.223-3.222-.445-1.334-.667-2.11-.223-3.667.111-.444.445-.889.89-.889h.221c.223 0 .445.111.667.222.778.778.445 2.556 0 4v.112c.445 1.222 1.111 2.222 1.778 2.888.33.223.55.445.994.667.554 0 1-.11 1.443-.11 1.334 0 2.223.221 2.556.777.111.222.111.444.111.666-.11.112-.222.445-.444.667zM9.333 8.778c-.222.778-.666 1.666-1.11 2.666-.223.445-.445.778-.667 1.223h.222c1.444-.556 2.778-.89 3.666-1-.222-.11-.333-.223-.444-.334-.556-.666-1.222-1.555-1.667-2.555z"/>
</svg>
