<svg width="16" height="17" viewBox="0 0 16 17" fill="none" xmlns="http://www.w3.org/2000/svg">
<path fill-rule="evenodd" clip-rule="evenodd" d="M6 2.55957C3.79086 2.55957 2 4.35043 2 6.55957C2 8.76871 3.79086 10.5596 6 10.5596C8.20914 10.5596 10 8.76871 10 6.55957C10 4.35043 8.20914 2.55957 6 2.55957ZM0 6.55957C0 3.24586 2.68629 0.55957 6 0.55957C9.31371 0.55957 12 3.24586 12 6.55957C12 7.8554 11.5892 9.05529 10.8907 10.0361L15.7071 14.8525C16.0976 15.243 16.0976 15.8762 15.7071 16.2667C15.3166 16.6572 14.6834 16.6572 14.2929 16.2667L9.47653 11.4503C8.49572 12.1488 7.29583 12.5596 6 12.5596C2.68629 12.5596 0 9.87328 0 6.55957Z" fill="#9CA3AF"/>
</svg>
