<svg fill="none" height="20" viewBox="0 0 20 20" width="20" xmlns="http://www.w3.org/2000/svg"><path d="m9.22222 6.22222c.11111 0 .11111 0 0 0 .11111-.44444.22222-.66666.22222-1v-.22222c.11112-.55556.11112-1 0-1.11111 0 0 0 0 0-.11111l-.11111-.11111s0 .11111-.11111.11111c-.22222.66666-.22222 1.44444 0 2.44444zm-3.33333 7.66668c-.22222.1111-.44445.2222-.55556.3333-.77777.6667-1.33333 1.4444-1.44444 1.7778.66667-.1111 1.33333-.7778 2-2.1111.11111 0 .11111 0 0 0zm10.22221-1.6667c-.1111-.1111-.5555-.4444-2.1111-.4444-.1111 0-.1111 0-.2222 0v.1111c.7778.3333 1.5555.5555 2.1111.5555h.2222.1111s0 0 0-.1111c0 0-.1111 0-.1111-.1111zm1.6667-12.2222h-15.55558c-1.22222 0-2.22222 1-2.22222 2.22222v15.55558c0 1.2222 1 2.2222 2.22222 2.2222h15.55558c1.2222 0 2.2222-1 2.2222-2.2222v-15.55558c0-1.22222-1-2.22222-2.2222-2.22222zm-1.2222 13.1111c-.2223.1111-.5556.2222-1 .2222-.8889 0-2.2223-.2222-3.3334-.7777-1.8889.2222-3.33331.4444-4.44442.8888-.11111 0-.11111 0-.22222.1111-1.33334 2.3334-2.44445 3.4445-3.33334 3.4445-.22222 0-.33333 0-.44444-.1112l-.55556-.3332v-.1112c-.11111-.2222-.11111-.3333-.11111-.5555.11111-.5556.77778-1.5556 2.11111-2.3334.22222-.1111.55556-.3333 1-.5555.33334-.5556.66667-1.2223 1.11111-2 .55556-1.11111.88889-2.22222 1.22223-3.22222-.44445-1.33334-.66667-2.11111-.22223-3.66667.11111-.44444.44445-.88889.88889-.88889h.22222c.22223 0 .44445.11111.66666.22222.7778.77778.4445 2.55556 0 4v.11112c.4445 1.22222 1.1111 2.22222 1.7778 2.88884.3333.2223.5555.4445 1 .6667.5555 0 1-.1111 1.4444-.1111 1.3334 0 2.2223.2222 2.5555.7778.1112.2222.1112.4444.1112.6666-.1111.1112-.2222.4445-.4444.6667zm-7.22227-4.33332c-.22222.77778-.66666 1.66662-1.11111 2.66662-.22222.4444-.44444.7778-.66666 1.2223h.11111.11111c1.44444-.5556 2.77782-.8889 3.66662-1-.2222-.1111-.3333-.2223-.4444-.3334-.5556-.6666-1.22222-1.55552-1.66667-2.55552z" fill="#3b3b3b"/></svg>