<svg xmlns="http://www.w3.org/2000/svg" x="0" y="0" version="1.1" viewBox="0 0 612 612" xml:space="preserve" fill="currentColor">
  <path d="M612 116.258a250.714 250.714 0 0 1-72.088 19.772c25.929-15.527 45.777-40.155 55.184-69.411-24.322 14.379-51.169 24.82-79.775 30.48-22.907-24.437-55.49-39.658-91.63-39.658-69.334 0-125.55 56.217-125.55 125.513.005 9.828 1.115 19.427 3.256 28.606-104.325-5.24-196.835-55.223-258.75-131.174-10.822 18.51-16.98 40.078-16.98 63.101 0 43.559 22.182 81.993 55.836 104.479a125.556 125.556 0 0 1-56.87-15.756v1.568c0 60.806 43.29 111.554 100.693 123.104-10.517 2.83-21.607 4.398-33.08 4.398-8.107 0-15.947-.803-23.634-2.333 15.985 49.907 62.336 86.199 117.253 87.194-42.947 33.654-97.099 53.655-155.916 53.655-10.134 0-20.116-.612-29.944-1.72 55.567 35.68 121.536 56.484 192.438 56.484 230.95 0 357.19-191.29 357.19-357.188l-.42-16.253c24.664-17.599 46.003-39.7 62.792-64.867z"/>
</svg>
