<svg viewBox="0 0 36 36" xmlns="http://www.w3.org/2000/svg"><path d="m286 12c-9.9405 0-18 8.0595-18 18s8.0595 18 18 18 18-8.0595 18-18c-.0105-9.936-8.064-17.9895-18-18zm-6.75 22.5h13.5c.828 0 1.5.672 1.5 1.5s-.672 1.5-1.5 1.5h-13.5c-.828 0-1.5-.672-1.5-1.5s.672-1.5 1.5-1.5zm-1.5-4.5c0-.828.672-1.5 1.5-1.5h13.5c.828 0 1.5.672 1.5 1.5s-.672 1.5-1.5 1.5h-13.5c-.828 0-1.5-.672-1.5-1.5zm15-4.5h-13.5c-.828 0-1.5-.672-1.5-1.5s.672-1.5 1.5-1.5h13.5c.828 0 1.5.672 1.5 1.5s-.672 1.5-1.5 1.5z" transform="translate(-268 -12)"/></svg>