<?xml version="1.0" standalone="no"?>
<!DOCTYPE svg PUBLIC "-//W3C//DTD SVG 20010904//EN"
 "http://www.w3.org/TR/2001/REC-SVG-20010904/DTD/svg10.dtd">
<svg version="1.0" xmlns="http://www.w3.org/2000/svg"
 width="531.000000pt" height="531.000000pt" viewBox="0 0 531.000000 531.000000"
 preserveAspectRatio="xMidYMid meet">
<metadata>
Created by potrace 1.14, written by Peter Selinger 2001-2017
</metadata>
<g transform="translate(0.000000,531.000000) scale(0.100000,-0.100000)"
fill="#000000" stroke="none">
<path d="M2404 4201 c11 -159 54 -298 132 -427 43 -71 108 -157 147 -193 65
-60 237 -292 237 -320 0 -15 35 -14 48 2 16 19 -66 142 -217 327 -70 85 -142
176 -159 202 -84 123 -131 284 -142 481 0 4 -12 7 -26 7 l-26 0 6 -79z"/>
<path d="M2527 4246 c-5 -13 -3 -49 8 -146 17 -140 112 -316 264 -491 45 -52
116 -145 158 -206 42 -62 79 -113 83 -113 3 0 15 6 25 14 19 13 17 18 -39 102
-60 90 -164 228 -208 274 -143 150 -230 335 -237 505 -1 33 -5 62 -7 64 -11
11 -43 9 -47 -3z"/>
<path d="M2684 4158 c1 -57 -1 -122 -4 -145 -8 -48 14 -113 30 -97 17 17 22
54 25 202 l4 142 -28 0 -28 0 1 -102z"/>
<path d="M2285 4158 c17 -233 97 -412 285 -637 124 -149 200 -250 230 -308 12
-24 25 -43 29 -43 10 1 41 26 41 34 0 25 -156 238 -244 333 -117 127 -204 273
-246 411 -24 79 -25 84 -35 162 -4 30 -8 64 -10 75 -2 11 -4 30 -4 43 -1 17
-7 22 -27 22 l-26 0 7 -92z"/>
<path d="M2828 4242 c-23 -5 -26 -22 -31 -172 -4 -93 -10 -140 -26 -184 l-21
-59 22 -19 c21 -18 23 -18 36 -1 33 46 55 148 60 283 4 143 -1 161 -40 152z"/>
<path d="M2950 4231 c-25 -6 -25 -7 -26 -116 -1 -123 -22 -236 -62 -328 l-25
-58 20 -21 20 -20 31 74 c50 120 63 183 69 336 3 78 4 141 2 141 -2 -1 -15 -4
-29 -8z"/>
<path d="M3099 4213 c0 -5 -2 -15 -4 -23 -23 -104 -38 -228 -39 -340 -1 -187
6 -239 65 -457 11 -43 22 -50 47 -34 11 7 8 31 -17 132 -37 149 -43 202 -43
339 1 126 6 182 27 278 21 102 20 112 -10 112 -14 0 -25 -3 -26 -7z"/>
<path d="M3216 4203 c-2 -10 -8 -34 -12 -53 -4 -19 -8 -37 -9 -40 -1 -3 -5
-32 -9 -65 -5 -33 -10 -69 -12 -80 -6 -30 -6 -254 -1 -262 3 -5 8 -33 12 -63
4 -30 18 -97 31 -149 13 -51 24 -95 24 -97 0 -2 11 2 25 8 30 14 30 11 5 101
-11 39 -23 95 -26 122 -4 28 -8 53 -11 58 -6 9 -6 285 0 294 3 5 8 33 11 64 4
31 9 67 11 80 19 95 19 99 -8 99 -16 0 -28 -7 -31 -17z"/>
<path d="M2135 4168 c4 -13 8 -39 21 -133 3 -27 8 -53 10 -56 2 -4 6 -23 10
-43 10 -69 52 -195 94 -283 40 -86 41 -87 60 -67 19 19 19 20 -20 114 -40 99
-84 238 -94 303 -3 20 -9 54 -12 75 -8 43 -12 72 -13 90 -1 7 -14 12 -31 12
-19 0 -28 -4 -25 -12z"/>
<path d="M2026 4161 c-3 -4 -4 -18 -1 -29 2 -12 6 -47 10 -79 3 -32 8 -66 11
-75 3 -9 7 -25 9 -35 25 -126 67 -254 115 -358 21 -46 43 -85 48 -89 5 -3 17
3 26 13 16 17 15 23 -18 92 -71 154 -118 313 -141 474 -12 84 -16 95 -35 95
-10 0 -21 -4 -24 -9z"/>
<path d="M3329 4153 c0 -5 -2 -15 -4 -23 -24 -98 -32 -173 -34 -300 -2 -154
42 -380 73 -380 34 0 36 25 10 126 -36 142 -38 385 -4 504 17 60 13 80 -15 80
-14 0 -25 -3 -26 -7z"/>
<path d="M1912 4141 c-7 -4 -11 -14 -8 -22 3 -8 7 -36 10 -64 11 -92 17 -119
48 -230 41 -147 144 -395 165 -395 3 0 14 7 23 15 15 14 13 23 -32 115 -80
165 -137 360 -154 520 -6 67 -19 81 -52 61z"/>
<path d="M3512 4030 c-19 -37 -55 -92 -81 -122 -43 -49 -56 -86 -37 -105 14
-14 131 124 168 197 38 77 38 84 3 93 -17 5 -25 -5 -53 -63z"/>
<path d="M1733 4067 l-21 -12 23 -55 c23 -56 50 -155 60 -220 4 -30 9 -36 30
-36 21 0 25 5 25 32 0 45 -44 214 -69 263 -12 22 -22 41 -24 41 -1 -1 -12 -6
-24 -13z"/>
<path d="M3645 4030 c-28 -83 -107 -193 -185 -257 -66 -54 -84 -83 -59 -98 26
-16 180 128 219 205 11 21 24 41 29 44 5 3 21 35 37 72 23 55 25 67 13 75 -27
17 -37 9 -54 -41z"/>
<path d="M1623 4025 l-21 -15 19 -40 c11 -22 30 -80 43 -128 17 -64 28 -88 41
-90 31 -6 34 11 19 88 -13 63 -65 200 -76 200 -2 0 -13 -7 -25 -15z"/>
<path d="M3745 3968 c-36 -121 -180 -288 -298 -344 -33 -16 -37 -22 -32 -44 4
-14 8 -26 10 -28 5 -6 88 39 124 67 105 81 194 200 247 331 24 57 20 70 -18
70 -12 0 -22 -15 -33 -52z"/>
<path d="M1515 3987 c-11 -7 -21 -13 -23 -14 -2 0 8 -23 21 -50 14 -26 30 -67
36 -90 9 -32 18 -43 40 -51 l29 -10 -15 66 c-13 55 -57 164 -66 161 -1 0 -11
-6 -22 -12z"/>
<path d="M3894 3892 c-46 -144 -146 -270 -293 -366 -40 -27 -159 -89 -265
-138 -329 -154 -441 -219 -549 -318 -53 -48 -58 -57 -53 -84 4 -16 8 -31 11
-34 2 -2 35 27 73 66 91 91 201 158 497 302 134 65 276 139 316 165 135 87
237 202 294 330 14 32 25 61 25 65 0 4 -11 12 -25 18 -22 10 -27 9 -31 -6z"/>
<path d="M1326 3854 c-9 -8 -16 -18 -16 -22 0 -7 124 -89 166 -111 88 -44 227
-73 369 -75 116 -3 127 0 114 27 -9 21 -18 22 -127 23 -72 1 -144 8 -187 19
-86 21 -218 83 -264 124 -19 17 -36 31 -37 31 -1 0 -10 -7 -18 -16z"/>
<path d="M4010 3834 c-14 -41 -64 -132 -109 -197 -74 -108 -236 -223 -478
-338 -92 -45 -210 -101 -261 -125 -130 -63 -259 -152 -331 -229 -60 -65 -65
-77 -52 -124 l7 -24 18 29 c87 131 279 264 561 385 309 134 496 269 603 437
60 95 105 204 88 214 -22 15 -35 7 -46 -28z"/>
<path d="M4126 3841 c-2 -3 -16 -37 -31 -76 -63 -158 -160 -279 -315 -395 -80
-59 -197 -120 -533 -279 -187 -88 -294 -164 -373 -266 -56 -72 -72 -114 -66
-174 l5 -54 39 81 c64 132 177 239 343 325 28 14 151 75 275 135 309 150 440
245 563 407 57 75 127 208 142 266 6 23 3 27 -19 31 -15 3 -28 3 -30 -1z"/>
<path d="M1242 3778 c-20 -20 -14 -33 28 -67 85 -68 248 -141 375 -167 37 -7
354 -16 365 -9 4 2 5 15 3 28 -5 23 -6 23 -131 21 -215 -3 -386 44 -545 153
-43 29 -79 53 -80 53 -2 0 -8 -5 -15 -12z"/>
<path d="M4289 3713 c-66 -72 -117 -138 -178 -233 -33 -52 -61 -97 -61 -101 0
-11 29 -19 45 -13 8 3 26 27 41 52 35 60 119 172 183 242 46 51 49 56 34 72
-22 24 -24 24 -64 -19z"/>
<path d="M1191 3666 l-22 -23 78 -51 c132 -87 284 -146 428 -169 63 -10 364
-10 388 -1 17 7 17 9 1 32 -14 22 -21 25 -57 20 -109 -14 -217 -11 -357 11
-125 18 -324 105 -404 176 l-33 28 -22 -23z"/>
<path d="M4374 3633 c-126 -147 -201 -254 -190 -272 3 -5 14 -8 24 -6 9 2 20
4 25 4 4 1 23 25 42 55 35 55 104 142 163 205 18 18 32 35 32 36 0 7 -32 35
-39 35 -4 0 -29 -26 -57 -57z"/>
<path d="M1012 3624 l-22 -15 38 -61 c20 -34 73 -99 117 -144 68 -69 95 -89
177 -128 106 -52 143 -56 143 -16 0 20 -7 26 -40 36 -133 38 -293 171 -367
305 -22 41 -21 41 -46 23z"/>
<path d="M2315 3522 c-234 -189 -331 -306 -391 -469 -22 -59 -25 -76 -14 -83
26 -16 44 -2 60 46 63 184 171 306 489 550 11 8 11 15 2 32 -6 12 -15 22 -19
22 -4 -1 -61 -45 -127 -98z"/>
<path d="M888 3589 c-16 -9 -16 -12 3 -47 59 -105 157 -221 242 -285 65 -49
252 -147 281 -147 7 0 17 -5 23 -11 7 -7 12 -3 15 16 4 19 1 28 -11 32 -221
76 -394 222 -503 422 -18 33 -24 36 -50 20z"/>
<path d="M4434 3527 c-73 -87 -114 -142 -114 -150 0 -14 49 -6 68 11 11 9 46
49 78 87 32 39 62 73 66 76 5 3 -2 15 -15 27 l-23 22 -60 -73z"/>
<path d="M798 3516 c-16 -11 -14 -17 19 -72 51 -85 87 -129 172 -214 110 -110
232 -181 394 -230 l57 -18 0 29 c0 25 -5 30 -42 40 -64 17 -196 78 -258 120
-103 69 -273 261 -303 342 -8 20 -16 21 -39 3z"/>
<path d="M2490 3515 c-8 -8 -53 -44 -100 -81 -146 -116 -270 -248 -317 -339
-23 -44 -43 -94 -45 -110 -3 -26 0 -30 25 -33 18 -2 27 1 27 11 0 8 19 52 41
98 49 97 162 217 324 344 55 43 102 80 104 82 5 4 -30 43 -38 42 -3 0 -13 -7
-21 -14z"/>
<path d="M4665 3475 c-86 -62 -173 -103 -278 -130 -77 -20 -112 -23 -217 -21
-76 2 -148 10 -183 20 -54 15 -60 15 -83 -1 -23 -15 -24 -18 -10 -28 66 -49
375 -68 511 -31 121 32 289 120 339 175 20 21 20 22 0 41 -19 18 -20 18 -79
-25z"/>
<path d="M592 3428 c-22 -22 -12 -36 68 -93 150 -104 318 -295 383 -433 29
-61 35 -67 59 -64 l27 3 -15 42 c-57 161 -247 382 -446 518 -65 44 -60 43 -76
27z"/>
<path d="M2524 3386 c-71 -60 -145 -121 -188 -155 -82 -65 -182 -206 -200
-282 -4 -21 -1 -28 18 -37 21 -9 24 -7 35 26 40 114 102 185 302 348 71 58
129 109 129 113 0 4 -8 15 -17 23 -17 14 -23 11 -79 -36z"/>
<path d="M4740 3385 c-71 -58 -213 -129 -315 -156 -164 -44 -393 -32 -552 29
-50 19 -52 19 -79 1 l-28 -18 58 -26 c33 -14 102 -37 155 -50 83 -20 116 -23
241 -21 193 4 259 19 415 97 77 38 195 122 195 139 0 4 -8 17 -17 29 l-18 21
-55 -45z"/>
<path d="M1539 3397 c-2 -6 -7 -36 -13 -72 -4 -22 -11 -69 -17 -105 -56 -341
-39 -562 61 -790 36 -80 39 -85 66 -82 37 4 40 8 24 27 -20 24 -69 132 -85
190 -40 134 -54 356 -34 505 14 102 19 134 24 160 12 60 24 155 19 159 -5 5
-44 12 -45 8z"/>
<path d="M1637 3288 c-9 -57 -20 -123 -23 -148 -3 -25 -9 -63 -13 -85 -9 -49
-6 -275 3 -330 21 -119 84 -294 122 -336 9 -10 24 -14 39 -12 l24 5 -39 77
c-21 42 -51 117 -66 167 -23 77 -27 108 -28 234 -1 132 8 272 19 289 2 4 6 29
10 57 3 27 10 75 17 107 6 32 9 59 7 61 -2 3 -16 7 -30 11 -25 6 -26 6 -42
-97z"/>
<path d="M1787 3366 c-9 -7 -23 -64 -36 -146 -12 -74 -25 -148 -27 -165 -3
-16 -7 -84 -8 -150 -3 -167 19 -281 82 -405 48 -96 74 -123 113 -113 17 5 16
8 -10 47 -93 135 -126 251 -126 441 0 124 10 258 19 274 2 3 7 22 10 41 3 19
12 67 19 107 14 67 13 72 -4 76 -10 3 -25 0 -32 -7z"/>
<path d="M510 3321 c-9 -18 0 -27 78 -80 123 -85 262 -233 333 -358 22 -38 62
-63 77 -49 9 10 -32 89 -86 166 -68 95 -195 221 -291 288 -82 57 -95 61 -111
33z"/>
<path d="M4809 3279 c-102 -77 -266 -159 -349 -174 -14 -3 -49 -10 -79 -16
-61 -13 -206 -16 -301 -6 -90 9 -209 41 -301 81 -76 33 -78 33 -105 15 l-27
-17 68 -31 c75 -34 201 -76 255 -85 19 -3 53 -8 75 -13 53 -9 278 -10 337 0
180 29 380 119 494 223 29 27 30 30 14 47 -9 9 -19 17 -22 17 -2 0 -29 -18
-59 -41z"/>
<path d="M2514 3251 c-20 -16 -20 -17 -1 -46 43 -68 118 -241 157 -361 70
-221 72 -246 75 -1064 1 -399 3 -729 4 -733 0 -5 11 -7 24 -5 l22 3 0 690 c0
714 -3 820 -30 955 -3 14 -8 36 -10 50 -13 73 -91 284 -146 395 -34 69 -64
127 -68 129 -3 2 -15 -3 -27 -13z"/>
<path d="M462 3228 c-22 -22 -13 -34 58 -82 63 -43 240 -216 240 -235 0 -11
79 -53 91 -49 17 6 -100 155 -183 234 -60 57 -175 144 -190 144 -2 0 -9 -5
-16 -12z"/>
<path d="M2417 3188 c-15 -12 -12 -22 34 -117 89 -180 142 -354 165 -541 4
-30 7 -374 8 -765 l1 -710 28 -3 28 -3 -4 743 c-2 409 -6 754 -9 768 -3 14 -9
45 -12 70 -7 46 -9 53 -46 180 -39 133 -150 390 -168 390 -5 0 -16 -6 -25 -12z"/>
<path d="M4989 3126 c-2 -2 -26 -7 -54 -10 -72 -10 -183 -40 -320 -86 -235
-80 -358 -120 -371 -120 -15 0 -34 -30 -34 -55 0 -21 22 -16 180 35 229 75
435 139 470 145 3 1 38 7 78 15 l72 13 0 34 c0 29 -8 41 -21 29z"/>
<path d="M2335 3100 c-18 -19 -17 -23 18 -98 20 -42 48 -106 62 -142 29 -72
81 -288 89 -365 2 -27 5 -366 5 -752 l1 -703 28 0 27 0 -1 687 c-1 379 -4 722
-8 763 -11 119 -52 301 -89 397 -39 99 -96 221 -107 228 -4 3 -15 -4 -25 -15z"/>
<path d="M3482 3076 c-21 -11 -24 -21 -27 -87 -7 -132 -62 -274 -145 -374 -23
-27 -76 -86 -118 -130 -152 -160 -213 -265 -266 -455 -39 -140 -52 -298 -54
-654 -1 -175 1 -322 3 -327 3 -4 16 -4 28 0 l22 8 1 319 c1 326 3 369 30 534
41 242 106 369 293 564 108 113 140 155 178 231 43 85 64 165 69 264 3 47 7
94 9 104 2 9 2 17 2 17 -1 -1 -13 -7 -25 -14z"/>
<path d="M442 3028 c-7 -7 -12 -16 -12 -21 0 -15 78 -80 168 -140 236 -157
494 -185 823 -91 9 2 15 16 15 34 0 35 4 34 -66 16 -30 -8 -75 -17 -100 -21
-25 -4 -54 -9 -65 -12 -53 -11 -213 -9 -280 4 -82 15 -188 57 -268 105 -63 38
-171 118 -175 130 -5 12 -26 10 -40 -4z"/>
<path d="M3353 3030 c-20 -8 -36 -37 -31 -56 6 -24 -18 -107 -48 -172 -38 -78
-91 -149 -190 -252 -110 -115 -167 -199 -214 -320 -21 -53 -32 -192 -16 -207
3 -4 6 1 6 10 0 28 41 138 82 222 46 92 117 190 210 290 167 179 217 274 232
443 5 55 4 56 -31 42z"/>
<path d="M3890 2953 c-16 -74 -65 -214 -96 -275 -27 -53 -149 -219 -170 -231
-25 -14 -15 -23 23 -20 26 2 44 11 64 35 47 54 115 159 144 223 28 61 87 235
100 293 6 30 5 32 -23 32 -27 0 -30 -4 -42 -57z"/>
<path d="M5009 2996 c-2 -2 -24 -7 -49 -11 -71 -10 -217 -51 -424 -120 -162
-54 -217 -71 -291 -91 -5 -2 -21 -5 -34 -8 -29 -7 -28 -5 -36 -37 l-7 -27 89
24 c85 23 201 60 388 124 106 37 298 88 351 93 26 3 40 10 44 23 8 22 -16 45
-31 30z"/>
<path d="M3228 2971 c-19 -11 -29 -27 -33 -51 -10 -58 -57 -130 -160 -241 -52
-57 -117 -134 -142 -172 -41 -58 -47 -75 -50 -127 -2 -33 -1 -60 2 -60 2 0 18
28 35 63 38 75 86 139 188 247 98 105 144 174 172 260 28 86 25 102 -12 81z"/>
<path d="M4007 2948 c-8 -24 -30 -88 -47 -143 -41 -127 -88 -221 -155 -311
l-54 -72 32 -6 c28 -6 36 -2 65 30 49 57 146 263 190 406 22 70 37 130 34 133
-3 3 -15 5 -27 5 -17 0 -26 -10 -38 -42z"/>
<path d="M338 2958 c-18 -26 -13 -31 132 -130 131 -90 279 -162 390 -189 89
-22 231 -28 355 -16 70 7 232 41 242 50 3 3 2 15 -2 27 -6 18 -12 21 -34 16
-14 -3 -58 -12 -97 -20 -251 -54 -494 -25 -684 82 -63 36 -223 147 -240 167
-27 32 -47 36 -62 13z"/>
<path d="M4132 2948 c-6 -18 -20 -67 -32 -108 -46 -159 -96 -274 -162 -372
-43 -63 -44 -67 -24 -72 12 -3 26 -6 33 -6 14 0 93 124 126 200 26 58 83 223
91 262 3 13 12 47 20 76 l14 52 -28 0 c-23 0 -30 -6 -38 -32z"/>
<path d="M1808 2891 c-4 -26 -3 -26 72 -28 206 -4 418 -112 525 -267 21 -31
39 -55 41 -54 1 2 -3 30 -9 63 -10 55 -16 65 -78 126 -115 115 -278 180 -456
184 -91 2 -91 2 -95 -24z"/>
<path d="M3518 2862 c-4 -29 -3 -29 81 -50 48 -12 107 -24 132 -27 41 -6 49
-4 63 16 8 13 14 24 12 26 -4 4 -25 8 -91 17 -22 3 -69 15 -105 26 -84 26 -87
25 -92 -8z"/>
<path d="M275 2860 c-21 -24 -23 -22 80 -102 149 -116 335 -205 500 -239 89
-19 294 -26 375 -14 60 10 245 46 248 49 2 2 0 16 -4 31 -6 23 -10 26 -33 20
-148 -38 -253 -52 -381 -49 -160 3 -187 7 -305 46 -142 48 -243 105 -389 223
-38 30 -70 55 -71 55 -1 0 -10 -9 -20 -20z"/>
<path d="M4895 2851 c-60 -16 -195 -57 -300 -91 -190 -61 -342 -108 -380 -116
-60 -12 -81 -23 -92 -45 -10 -20 -10 -25 2 -27 21 -5 236 56 455 129 102 33
244 76 315 94 120 30 130 34 130 55 0 13 -5 25 -10 26 -6 2 -59 -10 -120 -25z"/>
<path d="M1814 2775 c0 -15 7 -25 16 -26 8 0 53 -2 100 -3 68 -3 99 -9 157
-34 181 -77 262 -176 343 -418 l39 -119 1 63 c0 78 -20 154 -68 251 -67 136
-167 222 -328 280 -71 26 -100 31 -173 31 -88 0 -89 0 -87 -25z"/>
<path d="M3492 2755 c-14 -30 -6 -34 117 -66 97 -25 127 -24 141 2 14 26 14
26 -40 34 -70 10 -129 24 -167 40 -20 8 -36 15 -38 15 -1 0 -7 -11 -13 -25z"/>
<path d="M156 2704 c-9 -24 -7 -44 5 -44 17 0 121 -51 174 -86 101 -66 203
-184 246 -285 17 -38 27 -49 51 -54 16 -4 31 -5 34 -3 2 3 -20 51 -48 108 -43
87 -66 118 -133 185 -74 74 -106 96 -235 160 -69 34 -87 38 -94 19z"/>
<path d="M5170 2712 c-62 -8 -215 -42 -279 -62 -70 -22 -79 -31 -62 -59 7 -12
28 -9 122 17 63 16 143 36 179 42 74 15 79 18 71 45 -4 14 -13 19 -31 17z"/>
<path d="M4697 2703 c-22 -6 -18 -20 30 -121 41 -87 141 -198 235 -261 64 -43
209 -96 290 -105 43 -5 46 -4 50 19 3 14 2 25 -1 26 -3 0 -15 2 -26 4 -11 2
-40 7 -63 10 -161 24 -366 177 -438 329 -19 39 -34 78 -34 88 0 18 -8 20 -43
11z"/>
<path d="M1837 2661 c7 -28 29 -38 78 -35 50 2 164 -36 217 -72 112 -78 184
-223 222 -449 26 -155 27 -170 32 -610 3 -236 7 -435 9 -442 6 -20 45 -3 46
21 0 11 1 172 2 356 0 301 -5 489 -18 575 -2 17 -7 48 -9 70 -3 22 -8 51 -11
65 -3 14 -8 40 -11 58 -4 18 -12 32 -20 32 -8 0 -14 8 -14 18 0 24 -26 96 -59
167 -71 150 -224 254 -388 263 -80 4 -82 4 -76 -17z"/>
<path d="M3435 2649 c-9 -28 -2 -31 117 -64 95 -25 101 -26 119 -9 10 9 19 20
19 24 0 3 -35 15 -77 25 -43 10 -92 25 -110 32 -45 18 -61 16 -68 -8z"/>
<path d="M4592 2663 c-18 -4 -22 -9 -16 -26 60 -195 190 -354 355 -434 135
-67 315 -116 331 -91 17 27 8 38 -29 38 -52 0 -188 49 -280 101 -137 77 -267
231 -310 367 -9 28 -19 51 -22 51 -3 -1 -16 -4 -29 -6z"/>
<path d="M4482 2627 c-31 -14 -25 -43 27 -147 104 -208 285 -366 503 -440 96
-32 218 -61 219 -52 0 4 2 16 4 28 4 18 -4 23 -73 38 -303 71 -517 245 -618
501 -15 39 -30 73 -33 76 -3 4 -17 2 -29 -4z"/>
<path d="M112 2581 c-10 -28 -9 -30 17 -36 44 -9 178 -92 225 -138 24 -24 56
-63 72 -87 34 -53 42 -60 72 -60 28 0 27 5 -3 58 -58 102 -158 194 -272 251
-91 46 -99 47 -111 12z"/>
<path d="M5187 2594 c-1 -1 -22 -5 -47 -8 -51 -7 -225 -52 -246 -64 -12 -7
-12 -12 4 -29 l18 -21 104 29 c58 17 130 33 160 37 50 6 55 9 58 34 3 25 0 28
-23 26 -14 -1 -27 -3 -28 -4z"/>
<path d="M5120 2466 c-52 -12 -103 -27 -113 -32 -17 -10 -16 -12 12 -24 25
-10 45 -9 118 5 49 10 91 19 94 21 8 5 -1 54 -10 53 -3 0 -49 -11 -101 -23z"/>
<path d="M119 2459 c-13 -25 -10 -28 56 -64 28 -15 71 -45 96 -66 28 -24 61
-41 84 -45 l38 -6 -32 41 c-44 55 -94 95 -164 131 -32 17 -60 30 -63 30 -2 0
-8 -9 -15 -21z"/>
<path d="M1226 2455 c-20 -16 -44 -59 -133 -234 -104 -204 -174 -311 -258
-395 -93 -92 -184 -150 -295 -188 -87 -29 -108 -32 -247 -36 -150 -4 -151 -4
-156 -28 -2 -14 -2 -26 2 -27 12 -6 246 0 289 7 257 42 467 205 623 481 25 44
74 136 109 205 34 69 78 149 96 177 l34 53 -26 -2 c-15 -2 -32 -7 -38 -13z"/>
<path d="M4404 2432 c-91 -57 -178 -118 -193 -135 -10 -13 -9 -17 8 -26 30
-17 37 -14 102 38 34 28 86 63 115 78 57 29 62 37 40 65 -11 16 -17 14 -72
-20z"/>
<path d="M886 2351 c-96 -191 -155 -282 -230 -356 -119 -117 -254 -166 -443
-161 -89 2 -102 1 -106 -15 -10 -38 5 -42 154 -36 109 3 159 10 204 25 189 65
300 183 451 482 93 183 89 170 54 170 -28 0 -33 -7 -84 -109z"/>
<path d="M1064 2437 c-152 -310 -279 -503 -385 -583 -127 -97 -215 -125 -424
-133 l-160 -6 -3 -29 -4 -28 139 5 c76 3 152 8 168 11 78 16 176 51 235 83 90
51 214 177 282 288 44 73 218 398 218 408 0 1 -12 4 -27 5 -20 1 -31 -5 -39
-21z"/>
<path d="M3397 2364 c-81 -15 -161 -44 -239 -86 -47 -25 -60 -38 -76 -76 -24
-54 -21 -64 11 -35 37 34 120 81 189 107 95 36 206 52 345 50 132 -2 232 -19
358 -60 87 -28 400 -180 450 -218 52 -40 233 -131 335 -169 129 -47 234 -69
349 -72 102 -2 122 4 114 35 -5 18 -14 20 -92 20 -108 1 -145 6 -248 36 -98
28 -236 91 -433 197 -306 164 -489 240 -655 270 -99 19 -316 19 -408 1z"/>
<path d="M4414 2301 c-50 -32 -94 -63 -97 -68 -4 -6 5 -15 18 -21 22 -10 31
-7 73 22 26 18 68 45 94 60 41 24 46 30 38 47 -6 10 -16 19 -23 19 -7 0 -53
-26 -103 -59z"/>
<path d="M1753 2335 c-95 -17 -149 -36 -328 -112 -82 -35 -180 -73 -218 -84
-61 -19 -97 -46 -97 -73 0 -23 190 34 310 94 142 70 343 129 461 134 151 6
301 -46 391 -137 32 -32 38 -27 25 24 -14 57 -95 114 -209 145 -73 21 -247 25
-335 9z"/>
<path d="M3453 2255 c-100 -16 -138 -28 -230 -73 -84 -41 -189 -131 -210 -180
-13 -31 -34 -122 -28 -122 2 0 17 23 35 50 75 117 226 219 381 259 144 36 360
24 529 -30 81 -27 392 -176 454 -218 120 -83 426 -216 541 -235 17 -3 53 -10
80 -15 44 -8 90 -9 233 -2 30 1 33 4 30 27 l-3 27 -125 2 c-233 5 -431 74
-764 268 -206 119 -428 211 -566 233 -14 2 -36 7 -50 10 -49 12 -226 11 -307
-1z"/>
<path d="M4523 2232 c-33 -20 -68 -43 -77 -51 -16 -14 -16 -16 8 -28 23 -12
31 -10 101 33 74 45 81 55 46 73 -13 8 -32 1 -78 -27z"/>
<path d="M107 2249 c-48 -3 -89 -8 -92 -10 -2 -3 -2 -14 1 -25 5 -19 13 -20
157 -18 137 2 186 -2 322 -30 17 -3 70 -16 118 -29 l88 -24 16 24 c9 13 14 25
12 27 -22 18 -346 83 -429 85 -30 1 -66 3 -80 4 -14 1 -64 0 -113 -4z"/>
<path d="M1795 2219 c-77 -10 -156 -35 -327 -105 -204 -83 -290 -113 -347
-120 -45 -5 -87 -36 -76 -54 5 -8 67 -6 113 5 12 3 30 7 40 9 63 14 154 46
262 91 268 112 324 127 455 124 176 -4 305 -79 393 -230 l32 -54 -6 55 c-7 61
-18 83 -77 147 -96 104 -278 157 -462 132z"/>
<path d="M3483 2140 c-203 -30 -366 -138 -444 -291 -52 -104 -58 -152 -59
-494 l-1 -312 28 4 28 5 0 300 c0 400 14 464 129 580 166 167 444 208 741 111
74 -24 201 -86 550 -268 284 -148 458 -199 675 -199 134 -1 149 3 143 36 -4
23 -6 23 -136 23 -153 0 -254 19 -397 72 -103 39 -132 52 -480 230 -257 131
-358 174 -466 196 -77 16 -230 19 -311 7z"/>
<path d="M72 2126 c-60 -9 -62 -10 -62 -38 0 -28 2 -30 28 -23 15 4 77 9 137
10 109 3 217 -11 375 -49 64 -15 65 -15 88 8 l23 23 -63 18 c-191 54 -379 72
-526 51z"/>
<path d="M1825 2103 c-88 -18 -165 -44 -327 -109 -210 -84 -353 -124 -444
-125 -53 -1 -65 -4 -83 -25 -11 -13 -18 -25 -13 -25 61 -10 161 -2 241 18 124
32 156 43 351 121 201 80 274 100 354 96 197 -9 329 -139 360 -355 6 -44 11
-206 11 -369 l0 -290 27 0 27 0 -1 303 c0 166 -4 330 -9 364 -34 241 -184 390
-399 397 -41 2 -84 1 -95 -1z"/>
<path d="M82 2009 c-56 -11 -60 -14 -54 -44 4 -23 7 -25 41 -18 79 16 265 8
377 -17 35 -8 51 -7 74 5 47 24 43 32 -23 45 -34 7 -71 14 -82 16 -60 12 -86
15 -183 18 -59 2 -126 0 -150 -5z"/>
</g>
</svg>
