<svg width="36" height="32" viewBox="0 0 36 32" fill="none" xmlns="http://www.w3.org/2000/svg">
<path d="M25.5 7.5C25.5 10.9375 20.875 17 18.875 19.5C18.4375 20.125 17.5 20.125 17.0625 19.5C15.0625 17 10.5 10.9375 10.5 7.5C10.5 3.375 13.8125 0 18 0C22.125 0 25.5 3.375 25.5 7.5ZM18 9.5C19.375 9.5 20.5 8.4375 20.5 7C20.5 5.625 19.375 4.5 18 4.5C16.5625 4.5 15.5 5.625 15.5 7C15.5 8.4375 16.5625 9.5 18 9.5ZM26.5625 11.25C26.625 11.1875 26.625 11.125 26.6875 11.0625L33.9375 8.125C34.875 7.75 36 8.4375 36 9.5V26.4375C36 27.0625 35.625 27.625 35 27.875L26 31.4375V12.5625C26.1875 12.125 26.375 11.6875 26.5625 11.25ZM9.375 11.25C9.5625 11.6875 9.75 12.125 10 12.5625V28.25L2 31.4375C1.0625 31.8125 0 31.125 0 30.0625V13.125C0 12.5 0.3125 11.9375 0.9375 11.75L8.5625 8.6875C8.75 9.5625 9 10.4375 9.375 11.25ZM20.4375 20.75C21.3125 19.6875 22.6875 17.9375 24 15.9375V31.5625L12 28.125V15.9375C13.25 17.9375 14.625 19.6875 15.5 20.75C16.75 22.375 19.1875 22.375 20.4375 20.75Z" fill="white"/>
</svg>
