<svg xmlns="http://www.w3.org/2000/svg" fill-rule="evenodd" width="100%" height="100%" stroke-linejoin="round" stroke-miterlimit="1.414" clip-rule="evenodd" version="1.1" viewBox="0 0 563 563" xml:space="preserve">
  <circle fill="#fff" cx="281.199" cy="281.238" r="258.296"/>
  <path d="M282.126 0c70.39.336 139.919 27.853 191.297 75.974 43.218 40.477 73.24 94.759 84.219 152.981 14.031 74.405-3.314 154.042-47.558 215.844-41.438 57.883-105.529 99.302-175.663 112.756-71.003 13.621-147.156-1.337-207.639-41.166C60.03 472.433 13.412 399.195 2.532 319.713c-9.877-72.136 9.413-148.007 53.315-206.696C106.52 45.277 187.972 1.997 274.877.07a307.02 307.02 0 0 1 7.25-.07zm-1.67 46c-72.277.345-142.74 35.465-186.496 92.877-44.536 58.437-59.744 138.381-38.092 210.282 19.957 66.275 70.868 122.754 135.136 149.495 56.984 23.71 123.433 23.716 180.428 0 63.7-26.506 114.664-82.263 134.927-148.803 17.602-57.812 11.902-122.367-15.917-176.247C452.128 99.39 373.04 47.978 286.54 46.058a257.4 257.4 0 0 0-6.084-.058z" fill="#212529" fill-rule="nonzero"/>
</svg>
