<svg xmlns="http://www.w3.org/2000/svg" fill="none" width="18" height="18" viewBox="0 0 18 18">
  <path d="M9 0a9 9 0 0 0-9 9 9 9 0 0 0 9 9 9 9 0 0 0 9-9 9 9 0 0 0-9-9Zm0 16.313c-4.032 0-7.313-3.28-7.313-7.313 0-4.032 3.28-7.313 7.313-7.313 4.032 0 7.313 3.28 7.313 7.313 0 4.032-3.28 7.313-7.313 7.313Zm1.406-4.5h-.562V8.719A.844.844 0 0 0 9 7.873H7.875a.846.846 0 0 0-.844.844c0 .464.38.844.844.844h.281v2.25h-.562a.846.846 0 0 0-.844.843c0 .464.38.844.844.844h2.812a.844.844 0 0 0 0-1.688ZM9 6.75A1.125 1.125 0 1 0 9 4.5a1.125 1.125 0 0 0 0 2.25Z" fill="#000"/>
</svg>
