<svg width="16" height="16" viewBox="0 0 16 16" xmlns="http://www.w3.org/2000/svg">
<path d="M15.5925 13.957C16.0605 14.4242 16.0605 15.1823 15.5925 15.6496C15.1244 16.1168 14.3649 16.1168 13.8968 15.6496L7.99356 9.71303L2.04834 15.6476C1.58027 16.1148 0.820828 16.1148 0.352704 15.6476C-0.11542 15.1803 -0.11537 14.4223 0.352704 13.955L6.29992 8.02244L0.351055 2.04303C-0.117018 1.5758 -0.117018 0.817724 0.351055 0.350443C0.819129 -0.116839 1.57857 -0.116789 2.04669 0.350443L7.99356 6.33185L13.9388 0.39732C14.4069 -0.0699117 15.1663 -0.0699117 15.6344 0.39732C16.1025 0.864552 16.1025 1.62263 15.6344 2.08991L9.6872 8.02244L15.5925 13.957Z"/>
</svg>
