<svg xmlns="http://www.w3.org/2000/svg" x="0" y="0" version="1.1" viewBox="0 0 60 60" xml:space="preserve" fill="currentColor">
  <path d="M31 16H17v14h14V16zm-2 12H19V18h10v10zm23-12H36a1 1 0 1 0 0 2h16a1 1 0 1 0 0-2zm0 6H36a1 1 0 1 0 0 2h16a1 1 0 1 0 0-2zm0 6H36a1 1 0 1 0 0 2h16a1 1 0 1 0 0-2zm0 6H19a1 1 0 1 0 0 2h33a1 1 0 1 0 0-2zm-18 6H19a1 1 0 1 0 0 2h15a1 1 0 1 0 0-2zm0 6H19a1 1 0 1 0 0 2h15a1 1 0 1 0 0-2zm0 6H19a1 1 0 1 0 0 2h15a1 1 0 1 0 0-2zm5 2h14V40H39v14zm2-12h10v10H41V42z"/>
  <path d="M59 13c0-.017-.009-.031-.01-.048V0H11v30H1v24c0 3.309 2.691 6 6 6h46a5.997 5.997 0 0 0 5.99-5.99V13.048c0-.017.01-.03.01-.048zM56.99 2v10H13V2h43.99zM3 54V32h8v22c0 2.206-1.794 4-4 4s-4-1.794-4-4zm50 4H11.47c.015-.018.026-.039.04-.057a5.96 5.96 0 0 0 .635-.873c.162-.27.305-.552.423-.848l.045-.123a5.94 5.94 0 0 0 .273-.95c.006-.03.008-.06.014-.09a6 6 0 0 0 .1-1.063V14h43.99v40.01c0 2.2-1.79 3.99-3.99 3.99z"/>
  <path d="M47 4H23v6h24V4zm-2 4H25V6h20v2z"/>
</svg>
