<svg width="21" height="21" viewBox="0 0 21 21" fill="none" xmlns="http://www.w3.org/2000/svg">
<path d="M10.4402 0.5C6.2605 0.5 2.94019 3.85938 2.94019 8C2.94019 11.0469 3.95581 11.9062 9.65894 20.1094C9.85425 20.3828 10.1277 20.5 10.4402 20.5C10.7136 20.5 10.9871 20.3828 11.1824 20.1094C16.8855 11.8672 17.9402 11.0469 17.9402 8C17.9402 3.85938 14.5808 0.5 10.4402 0.5ZM10.4402 17.9219C9.73706 16.9453 9.11206 16.0469 8.56519 15.3047C5.16675 10.4609 4.81519 9.83594 4.81519 8C4.81519 4.91406 7.31519 2.375 10.4402 2.375C13.5261 2.375 16.0652 4.91406 16.0652 8C16.0652 9.83594 15.6746 10.4609 12.2761 15.3047C11.7292 16.0469 11.1042 16.9453 10.4402 17.9219ZM10.4402 4.875C8.68237 4.875 7.31519 6.24219 7.31519 8C7.31519 9.71875 8.68237 11.125 10.4402 11.125C12.1589 11.125 13.5652 9.71875 13.5652 8C13.5652 6.24219 12.1589 4.875 10.4402 4.875ZM10.4402 9.25C9.73706 9.25 9.19019 8.70312 9.19019 8C9.19019 7.33594 9.73706 6.75 10.4402 6.75C11.1042 6.75 11.6902 7.33594 11.6902 8C11.6902 8.70312 11.1042 9.25 10.4402 9.25Z" fill="#222222"/>
</svg>
