<svg width="112" height="98" viewBox="0 0 112 98" fill="none" xmlns="http://www.w3.org/2000/svg">
<path d="M101.172 0.0566406H31.4615C25.6886 0.0566406 21.0049 4.74684 21.0049 10.5132V83.7091C21.0049 87.5562 17.8767 90.6801 14.0339 90.6801C10.1911 90.6801 7.06283 87.5562 7.06283 83.7091V17.4842C7.06283 15.5672 5.50306 13.9987 3.57732 13.9987C1.65157 13.9987 0.0917969 15.5672 0.0917969 17.4842V83.7091C0.0917969 91.3947 6.34395 97.6512 14.0339 97.6512H94.2008C103.81 97.6512 111.628 89.8349 111.628 80.2236V10.5132C111.628 4.74684 106.945 0.0566406 101.172 0.0566406ZM104.657 80.2236C104.657 85.9899 99.9672 90.6801 94.2008 90.6801H26.1025C27.3006 88.6324 27.9759 86.2579 27.9759 83.7091V10.5132C27.9759 8.59398 29.5444 7.02768 31.4615 7.02768H101.172C103.089 7.02768 104.657 8.59398 104.657 10.5132V80.2236ZM59.3456 59.3105H38.4325C36.5155 59.3105 34.947 60.8789 34.947 62.796C34.947 64.713 36.5059 66.2815 38.4325 66.2815H59.3456C61.2722 66.2815 62.8311 64.7226 62.8311 62.796C62.8311 60.8694 61.2626 59.3105 59.3456 59.3105ZM94.2008 59.3105H73.2877C71.3707 59.3105 69.8022 60.8789 69.8022 62.796C69.8022 64.713 71.3611 66.2815 73.2877 66.2815H94.2008C96.1274 66.2815 97.6863 64.7226 97.6863 62.796C97.6863 60.8694 96.1178 59.3105 94.2008 59.3105ZM59.3456 73.2525H38.4325C36.5155 73.2525 34.947 74.821 34.947 76.7381C34.947 78.6551 36.5059 80.2236 38.4325 80.2236H59.3456C61.2722 80.2236 62.8311 78.6647 62.8311 76.7381C62.8311 74.8114 61.2626 73.2525 59.3456 73.2525ZM94.2008 73.2525H73.2877C71.3611 73.2525 69.8022 74.8114 69.8022 76.7381C69.8022 78.6647 71.3611 80.2236 73.2877 80.2236H94.2008C96.1274 80.2236 97.6863 78.6647 97.6863 76.7381C97.6863 74.8114 96.1178 73.2525 94.2008 73.2525ZM90.7153 13.9987H41.918C38.0622 13.9987 34.947 17.1139 34.947 20.9698V41.8829C34.947 45.7322 38.0687 48.8539 41.918 48.8539H90.7153C94.5646 48.8539 97.6863 45.7322 97.6863 41.8829V20.9698C97.6863 17.1139 94.5711 13.9987 90.7153 13.9987ZM90.7153 41.8829H41.918V20.9698H90.7153V41.8829Z" fill="#BCCCDC"/>
</svg>
