<svg width="112" height="99" viewBox="0 0 112 99" fill="none" xmlns="http://www.w3.org/2000/svg">
<path d="M101.172 0.995605H31.4615C25.6886 0.995605 21.0049 5.68581 21.0049 11.4522V84.6481C21.0049 88.4952 17.8767 91.6191 14.0339 91.6191C10.1911 91.6191 7.06283 88.4952 7.06283 84.6481V18.4232C7.06283 16.5062 5.50306 14.9377 3.57732 14.9377C1.65157 14.9377 0.0917969 16.5062 0.0917969 18.4232V84.6481C0.0917969 92.3336 6.34395 98.5901 14.0339 98.5901H94.2008C103.81 98.5901 111.628 90.7739 111.628 81.1625V11.4522C111.628 5.68581 106.945 0.995605 101.172 0.995605ZM104.657 81.1625C104.657 86.9289 99.9672 91.6191 94.2008 91.6191H26.1025C27.3006 89.5714 27.9759 87.1968 27.9759 84.6481V11.4522C27.9759 9.53295 29.5444 7.96664 31.4615 7.96664H101.172C103.089 7.96664 104.657 9.53295 104.657 11.4522V81.1625ZM59.3456 60.2494H38.4325C36.5155 60.2494 34.947 61.8179 34.947 63.7349C34.947 65.652 36.5059 67.2205 38.4325 67.2205H59.3456C61.2722 67.2205 62.8311 65.6616 62.8311 63.7349C62.8311 61.8083 61.2626 60.2494 59.3456 60.2494ZM94.2008 60.2494H73.2877C71.3707 60.2494 69.8022 61.8179 69.8022 63.7349C69.8022 65.652 71.3611 67.2205 73.2877 67.2205H94.2008C96.1274 67.2205 97.6863 65.6616 97.6863 63.7349C97.6863 61.8083 96.1178 60.2494 94.2008 60.2494ZM59.3456 74.1915H38.4325C36.5155 74.1915 34.947 75.76 34.947 77.677C34.947 79.5941 36.5059 81.1625 38.4325 81.1625H59.3456C61.2722 81.1625 62.8311 79.6036 62.8311 77.677C62.8311 75.7504 61.2626 74.1915 59.3456 74.1915ZM94.2008 74.1915H73.2877C71.3611 74.1915 69.8022 75.7504 69.8022 77.677C69.8022 79.6036 71.3611 81.1625 73.2877 81.1625H94.2008C96.1274 81.1625 97.6863 79.6036 97.6863 77.677C97.6863 75.7504 96.1178 74.1915 94.2008 74.1915ZM90.7153 14.9377H41.918C38.0622 14.9377 34.947 18.0529 34.947 21.9087V42.8218C34.947 46.6712 38.0687 49.7929 41.918 49.7929H90.7153C94.5646 49.7929 97.6863 46.6712 97.6863 42.8218V21.9087C97.6863 18.0529 94.5711 14.9377 90.7153 14.9377ZM90.7153 42.8218H41.918V21.9087H90.7153V42.8218Z" fill="#102A43"/>
</svg>
