<svg xmlns="http://www.w3.org/2000/svg" width="60" height="49" version="1.1" viewBox="0 0 60 49" fill="#008943">
  <path d="M59.98 30.789a2.812 2.812 0 0 0-.02-.2 2.03 2.03 0 0 0-.09-.346 2.91 2.91 0 0 0-.077-.182c-.014-.028-.024-.06-.038-.085l-8.575-15.07a1.834 1.834 0 0 0-1.598-.927h-12.34a1.832 1.832 0 0 0-1.838 1.826c0 1.007.823 1.825 1.837 1.825h11.264l6.498 11.427H37.725a1.832 1.832 0 0 0-1.838 1.826c0 3.227-2.64 5.856-5.895 5.856-3.25 0-5.895-2.624-5.895-5.856a1.832 1.832 0 0 0-1.838-1.826H4.98l6.498-11.427h11.264a1.832 1.832 0 0 0 1.838-1.825 1.832 1.832 0 0 0-1.838-1.826H10.408c-.66 0-1.273.352-1.599.927L.233 29.982c-.019.028-.023.062-.038.09a1.95 1.95 0 0 0-.076.176 2.194 2.194 0 0 0-.09.342c-.01.067-.02.133-.02.195 0 .033-.01.062-.01.095v16.296a1.83 1.83 0 0 0 1.833 1.825H58.16A1.832 1.832 0 0 0 60 47.175l-.01-16.296c0-.028-.01-.062-.01-.09zm-3.666 14.56-52.646-.004V32.702h16.93c.86 4.374 4.741 7.682 9.392 7.682 4.647 0 8.532-3.309 9.389-7.682h16.93l.005 12.645zM21.488 20.882a1.816 1.816 0 0 0 0 2.581l7.192 7.145c.014.014.033.019.048.033.158.147.34.27.54.357.02.011.043.015.063.02.196.077.41.119.636.124.005 0 .005.005.01.005h.01a1.83 1.83 0 0 0 1.344-.59l7.158-7.11a1.816 1.816 0 0 0 0-2.582 1.846 1.846 0 0 0-2.598 0l-4.062 4.036V1.824A1.832 1.832 0 0 0 29.988 0a1.832 1.832 0 0 0-1.836 1.825v23.102l-4.068-4.04a1.845 1.845 0 0 0-2.598 0z"/>
</svg>
