<svg xmlns="http://www.w3.org/2000/svg" fill="#222" width="20" height="21" viewBox="0 0 20 21">
  <path d="M4.458 8.456c.266-.267 1.857-.666 1.724-2.398-.133-.533-.331-1.999-.597-2.865C4.922 1.06 4.79.195 2.8.595 1.872.795 1.01 1.66.61 2.46c-3.646 6.196 9.95 20.786 16.316 17.587.796-.4 1.724-1.199 1.989-2.065.597-1.799-.332-2.265-2.653-3.064-.928-.267-2.122-.666-2.653-.8-1.724-.267-2.122 1.4-2.387 1.6-2.388-.667-6.234-4.797-6.764-7.263zm10.932 2.308c-.138.981-1.72.785-1.583-.197.413-2.75-1.858-5.106-4.816-4.91-1.032.066-1.1-1.44-.069-1.505 3.99-.263 7.018 2.88 6.468 6.612zm3.658.875c-.064.99-1.54.857-1.475-.132.449-4.883-3.014-8.71-7.76-8.578-.963 0-.963-1.521 0-1.521 5.58-.133 9.748 4.42 9.235 10.226z"/>
</svg>
