<svg width="18" height="18" viewBox="0 0 18 18" fill="none" xmlns="http://www.w3.org/2000/svg">
<path d="M9 0C4.02891 0 0 4.02891 0 9C0 13.9711 4.02891 18 9 18C13.9711 18 18 13.9711 18 9C18 4.02891 13.9711 0 9 0ZM9 16.3125C4.96758 16.3125 1.6875 13.0321 1.6875 9C1.6875 4.96793 4.96758 1.6875 9 1.6875C13.0324 1.6875 16.3125 4.96793 16.3125 9C16.3125 13.0321 13.0324 16.3125 9 16.3125ZM10.4062 11.8125H9.84375V8.71875C9.84375 8.25469 9.46758 7.875 9 7.875H7.875C7.41094 7.875 7.03125 8.25469 7.03125 8.71875C7.03125 9.18281 7.41094 9.5625 7.875 9.5625H8.15625V11.8125H7.59375C7.12969 11.8125 6.75 12.1922 6.75 12.6562C6.75 13.1203 7.12969 13.5 7.59375 13.5H10.4062C10.8721 13.5 11.25 13.1221 11.25 12.6562C11.25 12.1904 10.8738 11.8125 10.4062 11.8125ZM9 6.75C9.62121 6.75 10.125 6.24621 10.125 5.625C10.125 5.00379 9.62121 4.5 9 4.5C8.37879 4.5 7.875 5.00273 7.875 5.625C7.875 6.24727 8.37773 6.75 9 6.75Z" fill="black"/>
</svg>
