<svg width="18" height="18" viewBox="0 0 18 18" fill="none" xmlns="http://www.w3.org/2000/svg">
<path d="M9 0C4.02891 0 0 4.02891 0 9C0 13.9711 4.02891 18 9 18C13.9711 18 18 13.9711 18 9C18 4.02891 13.9711 0 9 0ZM9 16.3125C4.96758 16.3125 1.6875 13.0321 1.6875 9C1.6875 4.96793 4.96758 1.6875 9 1.6875C13.0324 1.6875 16.3125 4.96793 16.3125 9C16.3125 13.0321 13.0324 16.3125 9 16.3125ZM9 10.6875C9.46582 10.6875 9.84375 10.3096 9.84375 9.84375V5.34375C9.84375 4.87969 9.46758 4.5 9 4.5C8.53242 4.5 8.15625 4.87969 8.15625 5.34375V9.84375C8.15625 10.3113 8.53594 10.6875 9 10.6875ZM9 11.8512C8.38969 11.8512 7.89469 12.3462 7.89469 12.9565C7.89609 13.5668 8.38828 14.0625 9 14.0625C9.61172 14.0625 10.1053 13.5675 10.1053 12.9572C10.1039 12.3469 9.61172 11.8512 9 11.8512Z" fill="black"/>
</svg>
