<svg width="16" height="16" viewBox="0 0 32 32" fill="none" xmlns="http://www.w3.org/2000/svg"><path d="M27.714 28.507h-24c-.946 0-1.714.769-1.714 1.716C2 31.229 2.768 32 3.714 32h24c.947 0 1.715-.769 1.715-1.716 0-.948-.765-1.777-1.715-1.777zM23.607 12.55l-6.178 6.571v-17.4A1.714 1.714 0 1014 1.716v17.4L7.82 12.55a1.69 1.69 0 00-1.249-.543 1.714 1.714 0 00-1.248 2.89l9.143 9.722c.648.692 1.849.692 2.496 0l9.143-9.721c.65-.69.616-1.776-.074-2.424-.688-.653-1.774-.681-2.424.076z" fill="#000"/></svg>