<svg width="20" height="16" xmlns="http://www.w3.org/2000/svg"><path d="M7.438 10.344c.125.25 0 .531-.282.625-.25.125-.531 0-.625-.281L6.25 10H3.719l-.281.688c-.094.28-.376.406-.626.28-.28-.093-.406-.374-.28-.624l2-5A.47.47 0 015 5a.46.46 0 01.438.344l2 5zM4.124 9h1.719L5 6.875 4.125 9zM15.5 6h2c.25 0 .5.25.5.5 0 .281-.25.5-.5.5h-.156l-.125.375a6.213 6.213 0 01-1.375 2.156c.094.063.187.125.312.188l.594.375a.494.494 0 01.156.687.494.494 0 01-.687.156l-.594-.343a6.39 6.39 0 01-.563-.406c-.25.187-.53.374-.812.5l-.531.28a.513.513 0 01-.688-.218.513.513 0 01.219-.688l.563-.25.468-.28-.656-.657a.53.53 0 010-.719.53.53 0 01.719 0l.687.719.031.031a4.922 4.922 0 001.188-1.875L16.281 7H12.5a.494.494 0 01-.5-.5c0-.25.219-.5.5-.5h2v-.5c0-.25.219-.5.5-.5.25 0 .5.25.5.5V6zm4.5 6c0 1.125-.906 2-2 2H2c-1.125 0-2-.875-2-2V4c0-1.094.875-2 2-2h16c1.094 0 2 .906 2 2v8zM9.5 3H2c-.563 0-1 .469-1 1v8c0 .563.438 1 1 1h7.5V3zm1 0v10H18c.531 0 1-.438 1-1V4c0-.531-.469-1-1-1h-7.5z"/></svg>